<?xml version="1.0" encoding="UTF-8" standalone="no"?>
<!DOCTYPE svg PUBLIC "-//W3C//DTD SVG 1.1//EN" "http://www.w3.org/Graphics/SVG/1.1/DTD/svg11.dtd">
<svg width="100%" height="100%" viewBox="0 0 226 184" version="1.1" xmlns="http://www.w3.org/2000/svg" xmlns:xlink="http://www.w3.org/1999/xlink" xml:space="preserve" xmlns:serif="http://www.serif.com/" style="fill-rule:evenodd;clip-rule:evenodd;stroke-linejoin:round;stroke-miterlimit:2;">
    <g transform="matrix(1.00324,0,0,0.997266,-553.956,-31.3448)">
        <path d="M659.488,65.471C655.817,63.665 653.289,59.887 653.289,55.523C653.289,49.409 658.254,44.444 664.368,44.444C670.483,44.444 675.448,49.409 675.448,55.523C675.448,59.519 673.327,63.024 670.152,64.973L678.214,80.493L664.816,105.92L651.274,79.052L659.488,65.471Z" style="fill:white;"/>
    </g>
    <g transform="matrix(1.00324,0,0,0.997266,-553.956,-31.3448)">
        <rect x="569.937" y="206.228" width="189.582" height="9.707" style="fill:white;"/>
    </g>
    <g transform="matrix(1.00324,0,0,0.997266,-553.956,-31.3448)">
        <path d="M562.385,80.911C562.266,80.916 562.147,80.918 562.027,80.918C556.584,80.918 552.164,76.498 552.164,71.055C552.164,65.612 556.584,61.193 562.027,61.193C567.47,61.193 571.889,65.612 571.889,71.055C571.889,73.65 570.885,76.012 569.244,77.774L597.27,111.088L624.344,53.555C620.546,51.622 617.942,47.676 617.942,43.125C617.942,36.671 623.182,31.431 629.636,31.431C636.091,31.431 641.331,36.671 641.331,43.125C641.331,47.621 638.789,51.527 635.065,53.485L664.619,111.898L694.927,53.587C691.095,51.666 688.461,47.701 688.461,43.125C688.461,36.671 693.701,31.431 700.156,31.431C706.61,31.431 711.85,36.671 711.85,43.125C711.85,47.388 709.565,51.121 706.154,53.165L732.744,110.731L760.941,78.354C758.956,76.55 757.708,73.947 757.708,71.055C757.708,65.612 762.128,61.193 767.571,61.193C773.014,61.193 777.433,65.612 777.433,71.055C777.433,76.498 773.014,80.918 767.571,80.918C767.439,80.918 767.308,80.915 767.177,80.91L759.667,198.993L570.161,198.993L562.385,80.911ZM606.169,142.23C597.579,142.23 590.605,149.203 590.605,157.793C590.605,166.383 597.579,173.357 606.169,173.357C614.758,173.357 621.732,166.383 621.732,157.793C621.732,149.203 614.758,142.23 606.169,142.23ZM723.291,142.23C714.701,142.23 707.727,149.203 707.727,157.793C707.727,166.383 714.701,173.357 723.291,173.357C731.88,173.357 738.854,166.383 738.854,157.793C738.854,149.203 731.88,142.23 723.291,142.23ZM664.906,134.844C652.239,134.844 641.956,145.127 641.956,157.793C641.956,170.459 652.239,180.743 664.906,180.743C677.572,180.743 687.855,170.459 687.855,157.793C687.855,145.127 677.572,134.844 664.906,134.844Z" style="fill:white;"/>
    </g>
    <g transform="matrix(1.00324,0,0,0.997266,-553.956,-31.3448)">
        <path d="M590.912,74.598C588.028,73.502 585.977,70.711 585.977,67.445C585.977,63.223 589.404,59.795 593.626,59.795C597.848,59.795 601.276,63.223 601.276,67.445C601.276,69.828 600.184,71.958 598.473,73.362L607.147,84.26L596.342,106.207L583.399,91.463L590.912,74.598Z" style="fill:white;"/>
    </g>
    <g transform="matrix(-1.00324,0,0,0.997266,780.053,-31.3448)">
        <path d="M590.912,74.598C588.028,73.502 585.977,70.711 585.977,67.445C585.977,63.223 589.404,59.795 593.626,59.795C597.848,59.795 601.276,63.223 601.276,67.445C601.276,69.828 600.184,71.958 598.473,73.362L607.147,84.26L596.342,106.207L583.399,91.463L590.912,74.598Z" style="fill:white;"/>
    </g>
</svg>
