<?xml version="1.0" encoding="utf-8"?>
<!-- Generator: Adobe Illustrator 28.1.0, SVG Export Plug-In . SVG Version: 6.00 Build 0)  -->
<svg version="1.1" id="Layer_1" xmlns="http://www.w3.org/2000/svg" xmlns:xlink="http://www.w3.org/1999/xlink" x="0px" y="0px"
	 viewBox="0 0 512 300" style="enable-background:new 0 0 512 300;" xml:space="preserve">
<style type="text/css">
	.st0{fill:#FFFFFF;}
</style>
<g>
	<path class="st0" d="M100.6,135V133H85.3v123.7c-2.9-2.5-5.5-4.8-8.1-7.1c-3.8-3.4-7.5-6.9-11.2-10.3c-1.2-1.1-2.2-2.3-3.5-3.1
		c-1.4-0.9-1.8-1.9-1.8-3.5c0-32.6,0-65.2,0-97.7V133H45.4v87.9c-5.7-5.2-11.2-10.2-16.6-15.1c-2.2-2-4.3-4.1-6.6-5.9
		c-1.1-0.9-1.4-1.8-1.4-3.1c0-20.7,0-41.3,0-62c0-0.6,0-1.2,0-1.8H5.6c0,0.7,0,1.3,0,2c0,9.2,0,18.3,0,27.5c0,14,0,27.9,0,41.9
		c0,0.7,0.3,1.5,0.7,2c1.3,1.3,2.8,2.4,4.1,3.6c4.2,3.8,8.4,7.5,12.6,11.3c4.1,3.7,8.2,7.4,12.3,11.1c4.2,3.8,8.4,7.5,12.6,11.3
		c4.2,3.8,8.4,7.5,12.6,11.3c3.7,3.3,7.3,6.7,10.9,10c1.5,1.3,3,2.5,4.5,3.9c1.8,1.7,3.4,3.4,5.2,5.1l0,0h19.7
		c0-0.7-0.1-1.4-0.1-2.1C100.6,226.2,100.6,180.6,100.6,135z"/>
	<path class="st0" d="M119.1,274L119.1,274L119.1,274z"/>
	<path class="st0" d="M239.1,133H135.6v56h15.2v-40.9h58.5c-1.5,2.2-2.9,4.2-4.3,6.2c-6,8.4-12,16.7-18,25.1
		c-4.6,6.5-9.3,13-13.9,19.4c-5.7,8-11.4,15.9-17.1,23.8c-4.1,5.8-8.3,11.6-12.4,17.3c-5.6,7.9-11.3,15.7-16.9,23.6
		c-2.5,3.4-5,6.9-7.4,10.3h125v-15.3H149C179.1,216.7,209,174.9,239.1,133z"/>
	<path class="st0" d="M363.7,191.3c-0.1-0.2-0.3-0.4-0.5-0.5c-19.1-19.1-38.1-38.1-57.2-57.1c-0.4-0.4-1.2-0.7-1.9-0.7
		c-5.5-0.1-11.1,0-16.6,0c-1.3,0-2.6,0-4.1,0c0,0.8,0,1.5,0,2.1c0,45.6,0,91.2,0,136.8c0,0.7-0.1,1.4-0.1,2.1h0H299
		c0-1.3-0.1-2.7-0.1-4c0-10.3,0-20.6,0-30.8c0-0.6,0-1.2,0-2c0.6,0,1.1-0.1,1.5-0.1c4.3,0,8.6,0,12.9,0c0.7,0,1.5,0.3,2,0.8
		c11.8,11.7,23.5,23.4,35.2,35.1c0.3,0.3,0.5,0.6,0.7,1c7.3,0,14.5,0,21.8,0c-15.3-15.3-30.6-30.5-46.1-46
		C339.3,215.7,351.5,203.5,363.7,191.3z M312.6,220.8c-0.8,0.8-1.6,1.1-2.7,1.1c-3.6-0.1-7.2,0-10.9,0v-72.6
		c14,14,28.2,28.2,42.5,42.5c0,0-0.3,0.4-0.6,0.7C331.5,201.9,322.1,211.4,312.6,220.8z"/>
	<path class="st0" d="M273.5,135c0-0.6,0-1.3,0-1.9c-0.3-0.1-0.4-0.1-0.6-0.1c-7,0-14,0-21,0c-0.4,0-0.9,0.3-1.2,0.7
		c-3.5,4.9-7,9.7-10.5,14.6c-3.9,5.4-7.7,10.9-11.6,16.3c-5.7,8-11.5,16-17.2,24c-4.3,6-8.6,12.1-12.9,18.1
		c-5.7,8-11.4,15.9-17.1,23.8c-3.4,4.8-6.9,9.6-10.3,14.4c-1.2,1.7-2.4,3.5-3.8,5.5c5.5,0,10.6-0.1,15.8,0c1.7,0.1,2.8-0.5,3.7-1.9
		c7.6-10.8,15.3-21.6,22.9-32.3c1-1.4,2.1-2.1,4-2.1c14.2,0.1,28.4,0.1,42.7,0.1c0.6,0,1.3,0,2,0c0,0.7,0,1.1,0,1.5
		c0,19.1,0,38.1,0,57.2c0,0.4-0.1,0.8-0.1,1.2l0,0h15.4c0-0.7-0.1-1.4-0.1-2.1C273.5,226.2,273.5,180.6,273.5,135z M258.2,198.8
		h-36.1c12-16.9,23.9-33.6,36.1-50.6V198.8z"/>
	<path class="st0" d="M506.4,230.8c-18.4-18.3-36.7-36.7-55-55c-0.4-0.4-0.7-0.8-0.9-1c6.8-6.8,13.4-13.4,20.1-20.1
		c8.5,8.3,17.1,16.7,25.4,24.9c3.6-3.6,7.2-7.2,10.4-10.4c-12-12-24.1-24.1-36.1-36.1c-13.8,13.8-27.8,27.8-42,42
		c19.1,19.1,38.3,38.3,57.5,57.5c-6.5,6.6-13,13.3-19.6,20c-9.5-9.5-18.8-18.8-28-28c-3.7,3.7-7.3,7.3-10.9,10.9
		c0.3,0.2,0.7,0.6,1.1,1c12.1,12.1,24.2,24.1,36.3,36.2c0.4,0.4,0.7,0.9,1.1,1.4h0.9c1.1-1.3,2.2-2.8,3.4-4
		c5.7-5.8,11.5-11.5,17.2-17.2c6.3-6.4,12.6-12.8,18.9-19.2c0.4-0.4,0.9-0.7,1.3-1v-0.9C507.1,231.4,506.7,231.1,506.4,230.8z"/>
	<path class="st0" d="M443.1,203.1c-23.2-23.1-46.3-46.3-69.5-69.4c-0.4-0.4-1.2-0.8-1.8-0.8c-6.4-0.1-12.8,0-19.2,0
		c-0.4,0-0.8,0.1-1.2,0.1c0,0.3-0.1,0.5-0.1,0.7c0,10.2,0,20.4,0,30.5c0,0.6,0.4,1.3,0.8,1.7c4.4,4.5,8.9,8.9,13.3,13.4
		c0.3,0.3,0.7,0.6,1.4,1.2v-31.6c18.5,18.5,36.8,36.8,55.3,55.3c-17.4,17.4-34.9,34.9-52.3,52.2c3.6,3.6,7.2,7.2,10.7,10.7
		c21-21,42.1-42.1,63.2-63.2C443.6,203.7,443.4,203.4,443.1,203.1z"/>
	<path class="st0" d="M125.9,243.3c-0.1-36.1-0.1-72.2-0.1-108.3v-2h-15v134.7c0.8-0.5,1.4-1.1,1.8-1.8c3.5-4.9,6.9-9.8,10.5-14.6
		C124.9,248.9,125.9,246.5,125.9,243.3z"/>
	<path class="st0" d="M351.4,219.2c0,5.9-0.1,11.9,0,17.8c0,0.7,0.3,1.5,0.8,2c4.4,4.5,8.9,8.9,13.3,13.4c0.3,0.3,0.7,0.6,1.2,1.1
		v-50.7c-0.3,0.2-0.5,0.3-0.6,0.5c-4.7,4.7-9.4,9.4-14.1,14.1C351.6,217.8,351.4,218.6,351.4,219.2z"/>
	<path class="st0" d="M5.6,117.8h501.2h0v-1.9c0-14.7-0.1-29.4,0.1-44c0-2.4-1.1-3.7-2.7-5c-0.3-0.3-0.7-0.5-1-0.7
		c-3.7-3.6-7.5-7.3-11.2-10.9c-3.6-3.5-7.3-7-10.9-10.6c-6.1-6-12.2-11.9-18.2-18c-1-1-2-1.4-3.3-1.4c-135.3,0-270.6,0-405.9,0
		c-0.3,0-0.6-0.1-0.9,0c-0.6,0.2-1.3,0.3-1.7,0.7c-4.6,4.5-9.2,9-13.8,13.5c-4.6,4.5-9.2,9-13.8,13.5c-5.7,5.5-11.3,11.1-16.9,16.7
		C6,70.3,5.6,71.2,5.6,72c0,14.7,0,29.5,0,44.2C5.6,116.7,5.6,117.2,5.6,117.8z M304,51.7h24.2V56h-18.8v12.5l0,0h17.9v4.4h-17.9v13
		h19.5v4.7H304V51.7z M264.6,51.8c0.4,0,0.8-0.1,1.2-0.1c4.1,0,8.3-0.1,12.4,0c5.1,0.2,9.8,1.3,13.3,5.4c2.6,3,3.9,6.5,4.5,10.4
		c0.5,3.5,0.4,7.1-0.6,10.5c-1.7,6.1-5.3,10.5-11.7,12.1c-1.9,0.5-4,0.7-6,0.7c-4.3,0.1-8.7,0-13.1,0L264.6,51.8L264.6,51.8z
		 M222.1,60c2.1-4.6,5.8-7.6,10.9-8.6c5.3-1,10.5-0.7,15.1,2.6c3.7,2.7,5.6,6.4,6.6,10.7c0.5,2.1,0.6,4.3,0.9,6.4l0,0
		c-0.1,4.6-1,8.9-3.5,12.9c-2.2,3.6-5.5,5.9-9.6,6.8c-4.3,1-8.5,0.8-12.6-0.9c-4.3-1.8-6.9-5.2-8.4-9.4
		C218.8,73.6,219.1,66.7,222.1,60z M182.3,69.7c0.4-5.5,1.7-10.7,5.8-14.7c2.6-2.6,5.9-3.8,9.6-3.9c2.9-0.1,5.8,0.1,8.6,1.2
		c3.8,1.6,6.8,5.3,6.8,9.4c-1.6,0-3.1,0-4.5,0c-0.3,0-0.9-0.4-1-0.7c-0.7-3.4-3.3-4.8-6.2-5.2c-3.8-0.6-7.6-0.2-10.1,3.2
		c-1.4,1.9-2.5,4.1-2.9,6.4c-0.9,4.9-0.9,9.9,0.7,14.9c2.6,8,11.4,8.4,16.1,4.8c1.2-0.9,1.7-2.5,2.7-4h5c-0.2,3.3-2,5.7-4.5,7.4
		c-5.7,3.9-11.8,4.3-18,1.2c-3.2-1.6-5.1-4.5-6.4-7.8C182.6,77.8,182,73.8,182.3,69.7z"/>
	<path class="st0" d="M279,86.4c4.5,0,7.8-1.9,9.7-6c2.6-5.5,2.6-11.1,0.4-16.8c-1.5-3.7-4.1-6.2-8.1-6.8c-3.7-0.5-7.5-0.4-11.4-0.5
		h0v30C272.9,86.4,276,86.4,279,86.4z"/>
	<path class="st0" d="M231.7,86.2c2.4,1.1,4.9,1.3,7.4,1.1c4.2-0.4,7.5-2.3,9.1-6.3c2-5.2,2.1-10.6,0.9-15.9
		c-0.6-2.8-1.6-5.4-4.1-7.1c-2.3-1.6-4.8-2.1-7.5-2h0c-0.3,0-0.6,0-0.9,0c-5,0-8.7,2.6-10.2,7.4c-1.7,5.3-1.6,10.7-0.2,16.1
		C227.1,82.4,228.7,84.8,231.7,86.2z"/>
</g>
</svg>
