<?xml version="1.0" encoding="utf-8"?>
<!-- Generator: Adobe Illustrator 16.0.0, SVG Export Plug-In . SVG Version: 6.00 Build 0)  -->
<!DOCTYPE svg PUBLIC "-//W3C//DTD SVG 1.1//EN" "http://www.w3.org/Graphics/SVG/1.1/DTD/svg11.dtd">
<svg version="1.1" id="Layer_1" xmlns="http://www.w3.org/2000/svg" xmlns:xlink="http://www.w3.org/1999/xlink" x="0px" y="0px"
	 width="300px" height="300px" viewBox="0 0 300 300" enable-background="new 0 0 300 300" xml:space="preserve">
<g id="Layer_2">
	<g id="Layer_1-2">
		<path fill="#FFFFFF" d="M96.198,177.182v-63.367l0.978,0.163c7.256,1.63,12.527,8.342,25.787,17.037
			c5.326,3.831,11.277,6.657,17.581,8.56l-3.858,0.733c-3.043,0.435-5,1.169-4.157,3.396c0.788,2.12,3.668,3.343,5.896,4.402
			c2.555,0.543,5.163,0.652,7.799,0.38L96.198,177.182z"/>
		<path fill="#FFFFFF" d="M203.803,177.182l-47.688-27.363c-0.38-0.381-0.543-1.006-0.326-1.495
			c0.788-1.521,1.957-2.798,3.451-3.613c2.065-0.896,4.348-1.169,6.521-0.625c0.707,0.217,1.875,0.543,1.767-1.169
			c0.108-0.951-0.218-1.901-0.897-2.608c-0.814-0.896-1.874-1.63-2.988-2.119c4.619-1.848,9.13-4.076,13.179-6.848
			c13.287-8.668,18.505-15.462,25.787-17.038l1.087-0.217L203.803,177.182z"/>
		<path fill="#FFFFFF" d="M96.633,109.521l53.422-31.33l53.694,30.95h-0.163c-8.479-1.386-17.282,0.788-24.238,6.113
			c-5.979,4.729-12.364,9.021-19.157,12.744c-6.576,2.555-13.858,2.555-20.488,0c-6.794-3.668-13.179-8.016-19.266-12.744
			c-6.767-5.217-15.462-7.336-23.804-5.842"/>
		<polygon fill="#FFFFFF" points="128.398,184.79 120.518,184.79 120.518,199.626 104.078,199.626 104.078,184.572 96.198,184.572 
			96.198,223.811 104.078,223.811 104.078,204.897 120.518,204.897 120.518,223.811 128.398,223.811 		"/>
		<rect x="151.55" y="184.572" fill="#FFFFFF" width="7.907" height="39.238"/>
		<polygon fill="#FFFFFF" points="203.694,184.572 182.771,184.572 182.771,223.811 203.694,223.811 203.694,218.539 
			190.543,218.539 190.543,205.876 203.694,205.876 203.694,200.659 190.543,200.659 190.543,189.844 203.694,189.844 		"/>
	</g>
</g>
</svg>
