<?xml version="1.0" encoding="UTF-8"?><svg id="Layer_1" xmlns="http://www.w3.org/2000/svg" xmlns:xlink="http://www.w3.org/1999/xlink" viewBox="0 0 268.01 156.9"><defs><style>.cls-1{fill:none;}.cls-1,.cls-2,.cls-3{stroke-width:0px;}.cls-4{clip-path:url(#clippath-1);}.cls-2,.cls-3{fill:#fff;}.cls-3{fill-rule:evenodd;}.cls-5{clip-path:url(#clippath);}</style><clipPath id="clippath"><rect class="cls-1" x="0" y="-.28" width="268.01" height="157.01"/></clipPath><clipPath id="clippath-1"><rect class="cls-1" x="0" y="-.28" width="268.01" height="157.01"/></clipPath></defs><path class="cls-2" d="M172.43,38.19h25.69l9.74,38.35,9.77-38.35h25.6v63h-15.96v-48.01l-12.23,48.01h-14.45l-12.2-48.01v48.01h-15.96v-63h0ZM99.46,38.19h18.1l23.77,34.91v-34.91h18.36v63h-18.36l-23.64-34.72v34.72h-18.24s0-63,0-63ZM26.02,38.19h19.44v22.08h21.36v-22.08h19.56v63h-19.56v-25.44h-21.36v25.44h-19.44s0-63,0-63Z"/><g class="cls-5"><path class="cls-2" d="M241.77,120.35c-.33.37-.65.65-.97.85-.32.19-.67.29-1.04.29-.45,0-.8-.11-1.06-.34-.25-.23-.38-.54-.38-.94,0-.24.04-.45.13-.63.09-.18.23-.34.42-.47.19-.13.44-.23.75-.29.31-.06.68-.1,1.12-.1h1.03v1.63h0ZM244.42,116.38c0-.66-.08-1.23-.24-1.71-.16-.48-.41-.87-.75-1.17-.34-.3-.78-.53-1.31-.68-.53-.15-1.17-.22-1.93-.22-.42,0-.83.03-1.23.1-.4.07-.76.16-1.1.26-.34.11-.63.23-.88.35s-.43.24-.52.34c-.1.1-.17.22-.2.35s-.05.3-.05.52c0,.16.01.31.03.45.02.14.05.25.09.34.04.09.09.16.15.21l.21.07c.11,0,.26-.05.44-.15.18-.1.41-.21.68-.33.27-.12.58-.23.94-.33.35-.1.76-.15,1.21-.15.34,0,.63.04.86.11.23.07.42.18.56.33.14.15.24.34.3.56.06.23.09.49.09.79v.58h-.93c-.85,0-1.6.06-2.24.19-.64.13-1.18.33-1.61.6-.43.27-.76.61-.98,1.02-.22.41-.33.9-.33,1.45,0,.51.09.96.26,1.35.17.39.41.71.72.97s.68.46,1.1.59.89.2,1.4.2c.62,0,1.17-.12,1.68-.35s.95-.56,1.35-.99v.76c0,.1.03.18.09.24.06.06.16.1.31.12.15.02.38.04.7.04.3,0,.53-.01.68-.04.15-.02.27-.07.34-.12.07-.06.11-.14.11-.24v-6.44h0ZM233.36,108.89c-.21-.2-.62-.31-1.22-.31s-1.02.1-1.24.32-.33.59-.33,1.13.11.88.32,1.08c.21.2.62.3,1.23.3s1.01-.1,1.23-.31c.22-.21.33-.58.33-1.12,0-.52-.11-.88-.32-1.09M233.48,113.24l-.06-.19c-.04-.05-.12-.1-.22-.14s-.24-.07-.41-.09-.39-.03-.65-.03-.48.01-.65.03-.31.05-.41.09c-.1.04-.18.09-.22.14l-.06.19v9.54l.06.19c.04.05.12.1.22.13.1.04.24.06.41.08s.39.03.65.03.48,0,.65-.03.31-.04.41-.08c.1-.04.18-.08.22-.13l.06-.19v-9.54ZM225.53,119.56c-.23.29-.44.53-.63.72s-.38.36-.56.48c-.18.12-.36.21-.54.26-.18.05-.35.08-.54.08-.37,0-.68-.09-.92-.27-.24-.18-.44-.42-.58-.71-.15-.3-.25-.63-.32-1.01-.07-.38-.1-.77-.1-1.17,0-.38.04-.75.11-1.11.07-.36.19-.69.34-.98.15-.29.36-.53.61-.7s.56-.26.91-.26c.39,0,.76.13,1.11.39.35.26.73.63,1.11,1.12v3.17h0ZM228.21,108.71l-.06-.19c-.04-.06-.11-.1-.21-.15-.1-.04-.24-.07-.41-.09-.17-.02-.39-.03-.65-.03s-.48.01-.65.03c-.17.02-.31.05-.41.09-.1.04-.18.09-.22.15l-.06.19v5.18c-.43-.42-.86-.74-1.3-.96-.44-.22-.92-.33-1.46-.33-.68,0-1.28.13-1.8.38-.52.26-.96.63-1.31,1.1-.35.48-.62,1.06-.8,1.74-.18.68-.27,1.44-.27,2.29,0,.71.07,1.38.22,2.02.14.64.37,1.2.69,1.68.32.48.73.86,1.23,1.14s1.12.42,1.85.42c.66,0,1.26-.15,1.8-.44s1.06-.7,1.55-1.23v1.06l.06.2.19.13c.09.04.2.06.35.07.14.01.33.02.56.02.21,0,.4,0,.54-.02.15-.01.26-.04.35-.07l.18-.13.05-.2v-14.07h0ZM210.35,116.95c.02-.34.07-.65.16-.95.09-.3.22-.55.39-.77.17-.22.38-.39.63-.52.25-.13.55-.19.9-.19.68,0,1.18.22,1.51.65s.48,1.03.46,1.79h-4.03ZM216.99,117.29c0-.67-.09-1.29-.26-1.87-.17-.57-.44-1.07-.8-1.48-.36-.42-.83-.74-1.4-.98-.57-.24-1.25-.35-2.05-.35-.76,0-1.44.12-2.04.38s-1.12.61-1.54,1.09-.74,1.05-.96,1.74c-.22.68-.33,1.45-.33,2.3,0,.89.1,1.67.32,2.34s.53,1.21.96,1.65c.43.44.96.76,1.6.98.64.21,1.38.32,2.23.32.47,0,.91-.03,1.33-.09.41-.06.78-.13,1.1-.21.32-.08.59-.17.79-.25.21-.09.33-.15.38-.2l.11-.15.06-.2c.01-.08.02-.17.03-.29,0-.11,0-.24,0-.4,0-.18,0-.33-.02-.44s-.03-.21-.06-.27l-.11-.13-.16-.04c-.11,0-.25.03-.42.1-.17.07-.39.14-.65.23-.26.08-.57.16-.93.23-.36.07-.77.1-1.24.1s-.86-.06-1.2-.18c-.33-.12-.6-.3-.82-.53-.21-.23-.36-.51-.46-.85-.1-.33-.15-.7-.15-1.11h5.82c.26,0,.46-.08.61-.24.15-.16.22-.4.22-.73v-.43h0ZM205.17,110.4c0-.18-.02-.34-.07-.48s-.11-.26-.2-.35c-.09-.1-.2-.17-.34-.22-.14-.05-.31-.07-.5-.07h-1.9c-.26,0-.5.03-.7.08s-.37.15-.52.27c-.15.13-.27.3-.39.5-.11.21-.21.46-.31.76l-3.11,8.24h-.04l-3-8.27c-.09-.3-.19-.55-.3-.76-.11-.2-.26-.37-.43-.49-.17-.12-.38-.21-.61-.27-.23-.05-.52-.08-.85-.08h-1.84c-.32,0-.58.1-.77.29-.19.19-.29.47-.29.84v12.36l.06.19c.04.06.11.1.21.14.1.04.24.06.41.09.17.02.39.03.64.03s.48-.01.65-.03.31-.05.41-.09c.11-.04.18-.08.22-.14l.06-.19v-11.29h.02l3.88,11.28.13.2c.06.06.15.1.26.15.11.04.25.07.42.09s.38.03.62.03.45,0,.62-.02c.17-.01.31-.03.42-.07.11-.04.2-.08.26-.14.06-.06.11-.14.14-.23l4.02-11.28h.02v11.29l.07.19c.04.06.11.1.21.14.1.04.24.06.41.09.17.02.39.03.64.03s.48-.01.65-.03c.17-.02.31-.05.41-.09.1-.04.18-.08.21-.14l.06-.19v-12.36h0ZM170.93,118.58c.05-.18.13-.35.24-.52.11-.17.24-.34.41-.51.17-.17.38-.33.63-.49.22.26.47.53.76.82.28.29.58.58.88.87s.62.58.95.87c.32.29.65.56.97.82-.16.11-.33.22-.51.32-.18.1-.38.18-.58.25-.2.07-.41.12-.62.16-.21.04-.42.06-.64.06-.41,0-.78-.05-1.1-.15-.32-.1-.59-.25-.8-.43-.21-.19-.38-.41-.49-.66-.12-.26-.17-.54-.17-.85,0-.19.02-.37.08-.55M172.15,111.49c.06-.17.16-.31.3-.44.14-.12.31-.22.52-.29.21-.07.47-.1.77-.1.27,0,.51.03.71.1s.37.15.5.26c.14.11.24.24.3.39.07.15.1.31.1.48,0,.19-.04.38-.11.56-.07.18-.19.36-.36.55s-.4.37-.68.56c-.28.19-.63.4-1.06.63-.17-.23-.33-.44-.46-.64-.14-.2-.25-.38-.34-.56-.09-.18-.16-.34-.21-.5-.05-.16-.07-.32-.07-.47,0-.19.03-.37.09-.54M168.13,120.57c.13.39.31.74.54,1.04.23.3.5.57.82.79.32.22.68.4,1.07.55.39.15.81.26,1.25.33.44.07.9.11,1.36.11s.91-.03,1.33-.1c.41-.06.82-.16,1.21-.28.39-.12.76-.27,1.12-.46.36-.18.71-.39,1.04-.62.39.29.73.52,1.02.7.29.18.55.33.77.44.22.11.42.19.58.23.17.04.33.06.49.06.2,0,.37-.02.51-.06.14-.04.24-.08.31-.13l.13-.18c.02-.07.04-.18.05-.33.01-.15.02-.36.02-.62,0-.25,0-.44-.03-.57-.02-.13-.05-.22-.1-.27l-.17-.07h-.22l-.21-.04c-.09-.03-.19-.08-.32-.15-.13-.07-.28-.18-.47-.31-.18-.13-.4-.29-.65-.48.17-.27.33-.55.47-.85.14-.3.26-.62.36-.95.1-.33.17-.67.22-1.02.05-.35.07-.7.07-1.04v-.34c0-.09-.02-.17-.06-.23s-.11-.11-.2-.15c-.1-.04-.23-.06-.39-.07-.16-.01-.37-.02-.62-.02-.27,0-.48,0-.65.03-.17.02-.3.04-.39.08l-.18.14-.04.2v.33c0,.21-.02.42-.05.63-.03.21-.07.43-.13.63-.05.21-.12.4-.19.59-.07.19-.16.35-.25.49-.24-.21-.49-.43-.75-.68-.26-.24-.51-.49-.77-.73-.25-.25-.5-.49-.74-.74-.24-.25-.46-.48-.65-.7.59-.31,1.11-.61,1.55-.92.44-.3.81-.62,1.11-.95s.52-.68.66-1.04c.15-.36.22-.76.22-1.19,0-.48-.09-.91-.26-1.29-.17-.38-.43-.7-.78-.96-.35-.26-.8-.46-1.34-.61-.54-.14-1.19-.21-1.94-.21-.82,0-1.53.1-2.11.28s-1.07.44-1.45.77-.66.7-.84,1.14c-.18.44-.27.91-.27,1.41,0,.24.03.47.09.71.06.24.15.49.28.76.12.26.28.54.47.83.19.29.41.6.67.93-.46.27-.86.55-1.21.84-.35.29-.64.59-.87.9-.24.31-.41.65-.53,1-.12.35-.18.73-.18,1.13,0,.47.06.9.19,1.29M161.11,118.95c-.14-.32-.32-.59-.54-.82-.22-.23-.47-.42-.76-.58-.28-.16-.57-.29-.86-.41-.29-.12-.57-.23-.86-.33-.28-.1-.53-.21-.76-.32-.22-.11-.4-.25-.54-.4-.14-.15-.2-.34-.2-.56,0-.14.03-.28.09-.4.06-.12.14-.23.26-.33.11-.09.26-.16.44-.22.18-.05.39-.07.63-.07.34,0,.65.04.92.11.27.07.5.15.71.24s.37.17.51.24c.13.07.24.11.3.11l.15-.04.1-.15c.02-.07.04-.17.05-.29.01-.12.02-.28.02-.47,0-.16,0-.3-.02-.41-.01-.11-.02-.2-.04-.28l-.06-.19-.15-.16c-.07-.05-.18-.12-.34-.19s-.35-.15-.58-.21c-.23-.06-.48-.12-.77-.16-.28-.04-.57-.06-.87-.06-.6,0-1.14.07-1.62.23s-.89.36-1.23.63-.59.6-.77.98c-.18.38-.27.8-.27,1.26s.07.84.2,1.16c.13.32.31.6.52.82.22.23.46.42.74.58.27.16.56.3.85.42.29.12.57.23.85.33.27.1.52.21.74.32s.39.25.52.4c.13.15.2.34.2.55,0,.19-.04.35-.11.49-.07.14-.18.26-.32.35-.14.09-.3.16-.49.21-.19.05-.41.07-.65.07-.39,0-.73-.05-1.04-.14-.3-.09-.57-.19-.8-.3-.23-.11-.42-.21-.57-.29-.15-.09-.27-.13-.35-.13l-.16.04-.11.15c-.03.07-.05.18-.06.3-.01.12-.02.29-.02.5,0,.32.02.55.06.71.04.16.1.28.18.35s.2.16.38.24c.17.09.39.17.65.25.26.08.55.15.87.2.32.05.67.08,1.02.08.59,0,1.14-.07,1.65-.21s.95-.35,1.32-.63c.37-.28.66-.62.86-1.04.2-.41.31-.89.31-1.44,0-.43-.07-.81-.2-1.13M152.91,113.01c-.04-.05-.1-.1-.2-.13-.1-.03-.23-.05-.4-.07s-.38-.02-.65-.02-.48,0-.65.02c-.17.01-.31.04-.41.07-.1.04-.17.08-.21.15l-.09.22-1.82,7.02-.02.13-.03-.12-1.91-7.08-.09-.19c-.04-.05-.11-.1-.2-.13-.1-.03-.23-.06-.39-.07-.16-.02-.38-.03-.64-.03s-.48,0-.65.02-.3.04-.39.07-.16.08-.21.15l-.1.22-1.78,7.02-.02.13-.02-.13-1.9-7.02-.09-.22c-.04-.06-.11-.11-.21-.15-.1-.04-.24-.06-.42-.07-.18-.01-.41-.02-.7-.02-.26,0-.48,0-.66.02-.18.01-.31.04-.42.07-.1.03-.18.07-.21.13l-.06.19c0,.08,0,.18.03.29s.06.28.12.49l2.53,8.65c.03.12.07.21.13.28.06.07.15.13.27.18.12.04.3.07.51.09s.51.03.86.03.64,0,.86-.02c.22-.01.4-.04.53-.09s.22-.1.27-.18c.05-.07.1-.17.12-.29l1.48-5.81.02-.1.02.1,1.61,5.81c.03.12.07.21.13.28.06.07.15.13.27.18.12.04.3.07.52.09s.51.03.86.03.64,0,.85-.02c.22-.01.39-.04.5-.09s.21-.1.26-.18c.06-.07.1-.17.14-.29l2.55-8.65c.06-.21.1-.38.12-.49.02-.12.03-.21.03-.29l-.05-.19ZM129.54,116.95c.01-.34.07-.65.16-.95.09-.3.22-.55.38-.77.17-.22.38-.39.63-.52s.55-.19.9-.19c.68,0,1.18.22,1.51.65.32.43.48,1.03.46,1.79h-4.03ZM136.18,117.29c0-.67-.09-1.29-.26-1.87-.17-.57-.44-1.07-.8-1.48-.36-.42-.83-.74-1.4-.98-.57-.24-1.25-.35-2.05-.35-.76,0-1.44.12-2.04.38s-1.12.61-1.54,1.09c-.42.48-.74,1.05-.97,1.74-.22.68-.33,1.45-.33,2.3,0,.89.11,1.67.32,2.34s.53,1.21.96,1.65c.43.44.96.76,1.6.98.64.21,1.38.32,2.24.32.47,0,.91-.03,1.33-.09.41-.06.78-.13,1.1-.21s.59-.17.79-.25c.21-.09.33-.15.38-.2l.11-.15.07-.2c.01-.08.02-.17.03-.29,0-.11.01-.24.01-.4,0-.18,0-.33-.02-.44s-.03-.21-.06-.27l-.11-.13-.16-.04c-.11,0-.25.03-.42.1-.17.07-.39.14-.65.23-.26.08-.57.16-.93.23-.36.07-.77.1-1.24.1s-.86-.06-1.2-.18c-.33-.12-.6-.3-.82-.53-.21-.23-.37-.51-.46-.85-.1-.33-.15-.7-.15-1.11h5.82c.26,0,.46-.08.6-.24.15-.16.22-.4.22-.73v-.43h0ZM124.46,109.69l-.05-.19-.19-.15c-.09-.04-.22-.07-.38-.09-.17-.02-.37-.03-.61-.03-.26,0-.47,0-.63.03-.16.02-.3.05-.4.09-.1.04-.17.09-.21.15l-.06.19v6.51c0,.49,0,1.01.02,1.55.01.54.03,1.07.05,1.57h-.01c-.13-.29-.26-.57-.4-.86-.14-.29-.28-.58-.42-.87-.14-.3-.29-.59-.44-.89-.15-.3-.31-.6-.47-.91l-2.7-5.07c-.14-.28-.27-.51-.4-.7s-.27-.34-.41-.45c-.15-.11-.31-.18-.5-.23-.19-.05-.42-.07-.69-.07h-1.51c-.29,0-.53.08-.72.25-.2.17-.29.42-.29.76v12.47l.05.19c.04.06.1.1.19.15.09.04.22.07.39.09.17.02.37.03.62.03s.47-.01.63-.03.29-.05.39-.09c.1-.04.17-.09.2-.15l.06-.19v-7.26c0-.54,0-1.07-.02-1.58-.01-.51-.04-1.02-.06-1.54h.02c.16.42.35.86.56,1.3.21.45.41.86.61,1.25l3.45,6.49c.18.36.34.65.48.87.14.23.29.4.44.54.15.13.32.22.5.27.18.05.4.07.65.07h1.2c.14,0,.27-.02.4-.06.13-.04.25-.1.34-.19.1-.09.17-.19.23-.32.06-.13.09-.27.09-.44,0,0,0-12.47,0-12.47ZM102.56,119.56c-.23.29-.44.53-.63.72s-.38.36-.56.48c-.18.12-.36.21-.54.26-.18.05-.36.08-.54.08-.37,0-.68-.09-.92-.27s-.44-.42-.58-.71c-.15-.3-.25-.63-.32-1.01-.06-.38-.1-.77-.1-1.17,0-.38.04-.75.11-1.11.08-.36.19-.69.34-.98.15-.29.36-.53.61-.7.25-.18.56-.26.91-.26.39,0,.76.13,1.11.39.35.26.72.63,1.11,1.12,0,0,0,3.17,0,3.17ZM105.24,108.71l-.06-.19c-.04-.06-.11-.1-.21-.15-.1-.04-.24-.07-.41-.09-.17-.02-.39-.03-.65-.03s-.48.01-.65.03c-.17.02-.31.05-.41.09-.1.04-.18.09-.21.15l-.06.19v5.18c-.43-.42-.86-.74-1.3-.96-.44-.22-.92-.33-1.46-.33-.68,0-1.28.13-1.8.38-.52.26-.96.63-1.31,1.1-.35.48-.62,1.06-.8,1.74-.18.68-.27,1.44-.27,2.29,0,.71.07,1.38.21,2.02s.37,1.2.69,1.68c.32.48.73.86,1.23,1.14.5.28,1.12.42,1.85.42.66,0,1.26-.15,1.8-.44.54-.29,1.06-.7,1.55-1.23v1.06l.06.2.19.13c.09.04.21.06.35.07.14.01.33.02.56.02.21,0,.39,0,.54-.02.15-.01.26-.04.35-.07l.18-.13.05-.2v-14.07ZM93.44,116.87c0-.69-.06-1.29-.18-1.78-.12-.49-.32-.92-.6-1.29-.28-.37-.64-.66-1.08-.87-.45-.21-1-.32-1.65-.32-.59,0-1.16.14-1.71.43-.55.29-1.08.71-1.61,1.29v-1.1l-.05-.19-.18-.13c-.08-.04-.2-.06-.35-.08-.15-.02-.34-.03-.57-.03s-.41,0-.55.03c-.15.02-.27.04-.36.08-.09.04-.16.08-.19.13l-.05.19v9.57l.07.19c.04.05.12.1.22.13.1.04.24.06.41.08.17.02.39.03.65.03s.48,0,.65-.03c.17-.02.31-.04.41-.08.1-.04.18-.08.22-.13l.07-.19v-6.36c.38-.48.74-.84,1.09-1.09s.7-.38,1.04-.38c.27,0,.51.05.71.15.2.1.37.25.5.44.13.19.23.42.29.68.07.26.1.63.1,1.09v5.46l.06.19c.04.05.11.1.21.13s.24.06.41.08c.18.02.39.03.66.03s.47,0,.65-.03c.18-.02.31-.04.41-.08s.17-.08.21-.13l.06-.19s0-5.91,0-5.91ZM79.05,120.35c-.33.37-.65.65-.97.85-.32.19-.67.29-1.04.29-.45,0-.8-.11-1.06-.34s-.38-.54-.38-.94c0-.24.04-.45.13-.63.09-.18.23-.34.42-.47.19-.13.44-.23.75-.29.31-.06.68-.1,1.11-.1h1.03s0,1.63,0,1.63ZM81.7,116.38c0-.66-.08-1.23-.24-1.71s-.41-.87-.75-1.17c-.34-.3-.78-.53-1.31-.68-.53-.15-1.17-.22-1.92-.22-.42,0-.83.03-1.23.1-.4.07-.76.16-1.1.26s-.63.23-.88.35c-.25.12-.43.24-.53.34-.1.1-.17.22-.21.35-.04.13-.05.3-.05.52,0,.16.01.31.03.45s.05.25.09.34.09.16.15.21l.21.07c.11,0,.26-.05.44-.15.18-.1.41-.21.68-.33.27-.12.58-.23.94-.33.35-.1.75-.15,1.21-.15.34,0,.63.04.86.11s.42.18.56.33c.14.15.24.34.3.56.06.23.09.49.09.79v.58h-.93c-.85,0-1.6.06-2.24.19-.64.13-1.18.33-1.61.6-.43.27-.76.61-.98,1.02-.22.41-.33.9-.33,1.45,0,.51.08.96.26,1.35.17.39.41.71.72.97s.68.46,1.1.59c.43.13.89.2,1.4.2.61,0,1.18-.12,1.68-.35.5-.24.95-.56,1.35-.99v.76c0,.1.03.18.09.24s.17.1.31.12c.15.02.38.04.7.04.3,0,.53-.01.68-.04.15-.02.27-.07.34-.12s.11-.14.11-.24v-6.44h0ZM70.98,108.68l-.06-.19c-.04-.06-.12-.1-.22-.15-.1-.04-.24-.07-.41-.09-.17-.02-.39-.03-.65-.03s-.48.01-.65.03c-.17.02-.31.05-.41.09-.1.04-.18.09-.22.15l-.07.19v14.1l.07.19c.04.05.12.1.22.13.1.04.24.06.41.08.17.02.39.03.65.03s.48,0,.65-.03c.17-.02.31-.04.41-.08.1-.04.18-.08.22-.13l.06-.19v-14.1ZM65.56,116.91c0-.71-.06-1.31-.18-1.81-.12-.5-.32-.93-.6-1.3-.28-.37-.64-.66-1.08-.88s-.99-.32-1.65-.32c-.52,0-1.02.11-1.51.34-.48.23-.96.57-1.42,1.02v-5.29l-.06-.19c-.04-.06-.12-.1-.22-.15-.1-.04-.24-.07-.41-.09-.17-.02-.39-.03-.65-.03s-.48.01-.65.03c-.17.02-.31.05-.41.09-.1.04-.18.09-.22.15l-.06.19v14.1l.06.19c.04.05.12.1.22.13.1.04.24.06.41.08.17.02.39.03.65.03s.48,0,.65-.03c.17-.02.31-.04.41-.08.1-.04.18-.08.22-.13l.06-.19v-6.36c.38-.48.74-.84,1.09-1.09.35-.25.7-.38,1.04-.38.27,0,.51.05.71.15s.37.25.5.44c.13.19.23.42.29.68.07.26.1.63.1,1.09v5.46l.06.19c.04.05.11.1.21.13s.24.06.41.08.4.03.66.03.47,0,.65-.03c.18-.02.31-.04.41-.08s.17-.08.21-.13l.07-.19v-5.87ZM51.56,124.31c-.07.17-.19.32-.36.46-.17.14-.4.24-.68.33-.28.08-.62.12-1.03.12-.66,0-1.17-.09-1.53-.28-.36-.19-.54-.46-.54-.82,0-.12.01-.23.03-.33.02-.11.07-.22.13-.33.07-.11.16-.23.27-.36.11-.12.26-.26.44-.39l1.92.05c.45.01.8.11,1.06.28.26.17.39.42.39.74,0,.18-.04.36-.11.53M50.93,116.76c-.07.2-.17.37-.3.52-.13.15-.3.27-.5.35-.2.09-.44.13-.71.13-.51,0-.9-.14-1.19-.42-.28-.28-.43-.67-.43-1.15,0-.22.03-.43.1-.64s.16-.38.29-.54c.13-.15.3-.27.5-.37.2-.09.43-.13.7-.13.52,0,.93.14,1.21.43.29.29.43.69.43,1.2,0,.21-.03.42-.1.62M54.39,113.09c-.08-.16-.17-.24-.29-.24h-3.03c-.24-.06-.49-.11-.77-.15-.28-.04-.56-.05-.86-.05-.59,0-1.12.08-1.61.24-.49.16-.9.39-1.25.7-.35.3-.62.68-.82,1.12-.2.44-.29.94-.29,1.5,0,.52.07.96.22,1.31.15.35.35.65.6.9-.31.28-.56.59-.75.94-.19.35-.29.73-.29,1.15,0,.34.08.65.25.93s.4.51.71.67c-.22.16-.42.34-.59.52-.17.18-.32.37-.43.56-.12.2-.21.4-.27.62-.06.21-.09.44-.09.68,0,.38.08.73.25,1.04.17.32.44.59.8.82.37.23.84.41,1.42.54.58.13,1.27.19,2.09.19s1.57-.09,2.19-.27c.62-.18,1.15-.42,1.56-.73.41-.31.72-.67.93-1.09.21-.42.31-.86.31-1.34,0-.43-.08-.81-.23-1.15s-.38-.62-.67-.86c-.29-.24-.65-.43-1.07-.56s-.91-.21-1.45-.23l-2.33-.09c-.33-.01-.58-.09-.77-.22-.18-.13-.27-.3-.27-.51,0-.16.03-.3.1-.43.07-.13.15-.24.23-.33.15.1.36.19.64.26.28.07.57.11.88.11.6,0,1.15-.08,1.64-.23.49-.15.91-.38,1.25-.68.35-.3.61-.66.8-1.09.19-.43.28-.93.28-1.49,0-.24-.03-.46-.1-.68-.07-.22-.18-.41-.34-.59h1.13c.11,0,.21-.08.29-.25.08-.16.12-.42.12-.76,0-.37-.04-.64-.11-.79M43.19,108.89c-.21-.2-.62-.31-1.22-.31s-1.02.1-1.24.32c-.22.21-.33.59-.33,1.13s.1.88.32,1.08c.21.2.62.3,1.23.3s1.01-.1,1.23-.31c.22-.21.33-.58.33-1.12,0-.52-.11-.88-.32-1.09M43.31,113.24l-.06-.19c-.04-.05-.12-.1-.22-.14s-.24-.07-.41-.09c-.17-.02-.39-.03-.65-.03s-.48.01-.65.03c-.17.02-.31.05-.41.09s-.18.09-.22.14l-.06.19v9.54l.06.19c.04.05.12.1.22.13s.24.06.41.08c.17.02.39.03.65.03s.48,0,.65-.03c.17-.02.31-.04.41-.08s.18-.08.22-.13l.06-.19v-9.54ZM37.76,109.66l-.07-.19c-.05-.06-.12-.1-.23-.14-.11-.04-.25-.06-.43-.09-.18-.02-.4-.03-.68-.03s-.51,0-.69.03c-.18.02-.33.05-.43.09-.1.04-.18.08-.22.14l-.07.19v5.09h-5.19v-5.09l-.06-.19c-.04-.06-.12-.1-.23-.14-.11-.04-.25-.06-.43-.09-.18-.02-.41-.03-.69-.03s-.5,0-.68.03c-.18.02-.33.05-.43.09-.11.04-.18.08-.23.14l-.07.19v13.1l.07.19c.05.06.12.1.23.14.11.04.25.06.43.09.18.02.41.03.68.03s.51-.01.69-.03c.18-.02.32-.05.43-.09.11-.04.18-.08.23-.14l.06-.19v-5.61h5.19v5.61l.07.19c.05.06.12.1.22.14.1.04.25.06.43.09.18.02.41.03.69.03s.5-.01.68-.03c.18-.02.32-.05.43-.09.11-.04.18-.08.23-.14l.07-.19v-13.1Z"/></g><g class="cls-4"><path class="cls-3" d="M25.07,22.23h221.04v6H25.07v-6ZM25.07,130.59h221.04v6H25.07v-6Z"/></g></svg>