<?xml version="1.0" encoding="utf-8"?>
<!-- Generator: Adobe Illustrator 28.1.0, SVG Export Plug-In . SVG Version: 6.00 Build 0)  -->
<svg version="1.1" id="Layer_1" xmlns="http://www.w3.org/2000/svg" xmlns:xlink="http://www.w3.org/1999/xlink" x="0px" y="0px"
	 viewBox="0 0 200 200" style="enable-background:new 0 0 200 200;" xml:space="preserve">
<style type="text/css">
	.st0{fill-rule:evenodd;clip-rule:evenodd;fill:#FFFFFF;}
</style>
<g>
	<path class="st0" d="M8.1,52c0,3.1,0.9,5.6,2.1,7.9l0.4,0.6c0.1,0.1,0.1,0.2,0.2,0.3l0.9,1.6c0.1,0.1,0.1,0.2,0.2,0.3
		c0.3,0.7,0.7,1.3,1,2l0.7,1.3c0.1,0.1,0.1,0.2,0.2,0.3l1.2,2.3c0.4,0.8,0.8,1.5,1.2,2.3c0.1,0.1,0.1,0.2,0.2,0.3
		c0.3,0.7,0.7,1.3,1,2l0.5,1c-0.1,0-0.3,0-0.4,0c-0.1,0-0.3,0-0.4,0c-0.3,0-0.7,0-1.1,0c-1.1,0-2.8,0.2-3.8,0.6l-0.4,0.2
		c-1,0.5-1.7,1.5-1.8,2.6c0,0.2,0,0.4,0,0.6c0,0.2,0,0.4,0.1,0.6c0.5,1.9,1.6,3.5,3.5,4.2c0.2,0,0.3,0.1,0.5,0.1
		c0.9,0.2,2.2,0.1,3.1-0.1c0.4-0.1,1.3-0.4,1.6-0.5c-0.1-0.1-0.3-0.1-0.4-0.1c-1.2-0.2-2.4-0.4-3.5-1.1c-0.7-0.5-1.1-1.1-1.1-2
		c0-0.5,0.5-1,0.9-1.2c1.4-0.9,4.1-0.1,5.4,0.4c0.4,0.2,0.3,0.2,0.5,0.6l3.5,6.6c0.1,0.1,0.7,1.4,0.8,1.5c-0.1-0.1-0.3-0.1-0.5-0.2
		c-0.2-0.1-0.3-0.1-0.6-0.2c-1.3-0.3-2.4-0.6-3.8-0.6c-2.5,0-4.4,0.6-6.4,1.6c-0.6,0.3-1.1,0.7-1.6,1.1c-0.1,0.1-0.2,0.2-0.4,0.3
		c-0.1,0.1-0.1,0.1-0.2,0.1l-0.5,0.5c-0.5,0.5-1.2,1.2-1.5,1.8c-0.2,0.4-0.5,0.9-0.6,1.3c-0.1,0.2-0.1,0.3-0.2,0.5
		c-0.7,2.3-0.5,4.5,0.7,6.6c0.2,0.3,0.4,0.6,0.6,0.9c0.1,0.1,0.1,0.2,0.2,0.3l1,1.1c0.4,0.4,1.2,1.1,1.7,1.4c0.9,0.5,2.1,1,3.2,1
		c0.8,0,1.3-0.1,2-0.3c0.7-0.3,1.3-0.7,1.7-1.2l0.8-1.1c0.5-0.8,1.1-2,0.9-2.9c-0.2-1-0.9-1.7-1.8-2.1c-0.2-0.1-0.7-0.1-0.9-0.1
		c-1.7,0-2.7,1.1-2.9,2.7c0,0.2,0,0.2,0,0.5c0.2,0.6,0.5,1.2,0.9,1.5c0.1,0.1,0.1,0.1,0.1,0.2c0,1.1-2.3,0.1-2.7,0
		c-0.3-0.2-0.7-0.4-1-0.6l-0.3-0.3c-0.1-0.1-0.1-0.1-0.2-0.1c-1.7-1.7-1.9-3.8-1-6.1c0.2-0.5,0.4-0.9,0.7-1.3c0.3-0.4,0.6-0.7,1-1.1
		l0.5-0.5c0.2-0.2,0.4-0.3,0.5-0.5c0.1-0.1,0.2-0.1,0.3-0.2c0.1-0.1,0.2-0.1,0.3-0.2c0.5-0.3,1.1-0.7,1.6-0.9c0.1,0,0.2-0.1,0.4-0.1
		c0.8-0.3,1.7-0.5,2.6-0.5c1.2,0,2.3,0.1,3.4,0.6L24,90c0.6,0.3,1.2,0.7,1.7,1.1c0.8,0.6,1.7,1.4,2.3,2.3c0.6,0.8,1.2,3,1.3,3.9
		c0.5,2.4,0.2,4.8-0.4,7.1c-0.1,0.2-0.1,0.5-0.2,0.8l-0.6,1.4c0,0.1-0.1,0.2-0.1,0.3c0,0.1-0.1,0.2-0.1,0.3l-0.9,1.6
		c-0.3,0.6-0.7,1.3-1,1.9l-2.4,4.5c-0.1,0.1-0.1,0.2-0.2,0.3c-0.1,0.1-0.1,0.2-0.2,0.3l-0.9,1.6c-0.1,0.2-0.2,0.4-0.3,0.7
		c-0.1,0.1-0.1,0.2-0.2,0.3l-0.3,0.6c-0.3,0.6-0.7,1.3-1,1.9c-0.1,0.1-0.1,0.2-0.2,0.3c-0.1,0.2-0.2,0.5-0.4,0.6
		c0-0.8-0.3-2.5-0.5-3.1c-0.1-0.5-0.3-1-0.4-1.4c-0.2-0.4-0.4-0.8-0.6-1.2c-0.1-0.3-0.3-0.6-0.5-0.8c-0.1-0.1-0.1-0.2-0.2-0.3
		c-0.7-1-2.5-1.8-3.7-1.8c-0.8,0-1.5,0.2-2.2,0.7c-0.1,0.1-0.2,0.1-0.3,0.2c-0.5,0.4-1.3,1.3-1.5,1.9c-0.5,1.3-0.5,2.5,0,3.9
		c0.2,0.5,0.5,0.9,0.8,1.3c0.2,0.2,0.4,0.5,0.7,0.7c0,0,0.1,0.1,0.1,0.1l0.6,0.4c0.3,0.2,0.8,0.5,1.1,0.6c0-0.2-0.2-1.2-0.2-1.5
		c-0.2-1-0.2-2.4,0.1-3.3c0.4-0.9,1.5-1.1,2.1-0.4c0.4,0.5,0.7,1.1,1,1.7c0.7,1.8,1.2,4.5,1.4,6.4c0,0.1,0,0.1-0.1,0.2l-0.5,0.8
		c-0.3,0.6-0.6,1.2-0.9,1.8l-1.2,2.2c0,0.1-0.1,0.1-0.1,0.2l-0.4,0.7c-0.3,0.6-0.6,1.2-0.9,1.8l-0.7,1.3c-0.2,0.3-0.6,1.1-0.8,1.5
		l-1.2,2.2c0,0.1-0.1,0.1-0.1,0.2c0,0.1-0.1,0.1-0.1,0.2c0,0.1-0.1,0.1-0.1,0.2l-0.5,0.9c-0.1,0.1-0.1,0.3-0.2,0.4l-0.4,0.9
		c-0.8,1.9-1.4,4-1.4,6.1c0,1.3,0.1,2.3,0.4,3.4c0.2,0.9,0.5,1.7,0.9,2.4c0.3,0.5,0.5,1.1,0.9,1.6c0.8,1.2,1.3,1.7,2.2,2.7
		c0.1,0.1,0.1,0.1,0.2,0.2s0.1,0.1,0.2,0.2c0.3,0.3,0.6,0.5,0.9,0.7c0.6,0.5,1.4,0.9,2.1,1.2c0.8,0.4,1.6,0.6,2.4,0.9
		c0.2,0,0.4,0.1,0.7,0.1c2.4,0.5,4.6,0.3,6.9-0.5c1-0.3,1.9-0.8,2.8-1.4c0.1-0.1,0.2-0.2,0.4-0.2c0.4-0.2,0.7-0.5,1-0.8
		c0.4-0.3,1-0.9,1.3-1.3c0.7-0.8,1-1.4,1.4-2.5c0.1-0.3,0.2-0.7,0.2-1c0.1,0,0.4,0.7,0.5,0.8c0.1,0.1,0.2,0.3,0.2,0.4l0.3,0.4
		c0.3,0.5,0.8,1,1.2,1.5c1.3,1.3,2.9,2.6,4.6,3.3c1.5,0.7,2.3,1,4,1.3c0.3,0.1,0.8,0.1,1.2,0.1c1.8,0.1,3.2,0.1,4.9-0.2
		c1.8-0.3,3.8-0.9,5.4-1.8c0.7-0.3,1.4-0.7,2.2-1l1.1-0.5c0.1,0,0.2-0.1,0.3-0.1l2.4-1.2c0.3-0.2,0.7-0.4,1.1-0.5
		c0.8-0.3,1.6-0.8,2.4-1.1l1.9-0.9c0.1,0,0.2-0.1,0.3-0.1c0.1,0,0.2-0.1,0.3-0.1l2.7-1.3c0.2-0.1,0.3-0.2,0.5-0.3
		c0.2-0.1,0.3-0.2,0.5-0.2c0.3-0.1,0.3-0.1,0.6-0.1c1.1,0.1,2.4,0.3,3.5,0.5l1.3,0.3c1.1,0.3,3.8,0.9,4.4,2c0.2,0.4,0.2,0.9-0.1,1.2
		c-0.9,1.2-3.9,0.7-5.2,0.5c-0.2,0-0.5-0.1-0.8-0.1c0,0.2,0.7,1.3,0.8,1.4c0.2,0.3,0.5,0.6,0.8,0.9c0.9,0.8,2.3,1.5,3.6,1.5
		c0.5,0,1,0,1.5-0.1c0.9-0.2,1.6-0.5,2.3-1.1c0.1-0.1,0.3-0.2,0.4-0.4c0.2-0.2,0.4-0.5,0.6-0.8c0.5-0.7,0.6-1.3,0.6-2.2
		c0-1.1-0.7-2.1-1.3-3c-0.1-0.2-0.3-0.3-0.5-0.5c-0.1-0.1-0.2-0.1-0.3-0.2l-0.6-0.4c-1.5-0.8-3.4-1.4-5.1-1.6
		c-0.6-0.1-1.2-0.2-1.8-0.2c0-0.1,0.6-0.3,0.7-0.4c0.3-0.1,0.4-0.2,0.7-0.3l3.2-1.6c1.3-0.7,2.6-1.2,4-1.9c0.7-0.3,1.4-0.7,2.2-1
		c0.8-0.4,1.7-0.8,2.5-1.2c0.1-0.1,0.2-0.1,0.3-0.2c0.1-0.1,0.2-0.1,0.4-0.2l1.1-0.5c1.8-0.9,3.5-1.6,5.5-2c2.2-0.5,4.5-0.6,6.7-0.2
		c1.4,0.2,2.9,0.6,4.2,1.2c0.1,0,0.1,0,0.2,0.1c0.5,0.3,1.1,0.8,1.5,1.2l0.3,0.3c0.1,0.1,0.1,0.1,0.2,0.2c0.7,0.8,1.2,1.4,1.8,2.3
		c0.3,0.4,0.8,1.3,0.9,1.8c0.9,3.3,0,6.1-2.3,8.3c-0.7,0.7-1.5,1.3-2.4,1.9c-0.4,0.2-1.1,0.5-1.6,0.6c-1.8,0.5-3.7,0.4-5.2-0.7
		c-0.8-0.5-1.4-1.2-2-2.1c-0.2-0.3-0.9-2-0.5-2.6c0.1-0.1,0.2-0.1,0.4-0.2c0.2,0,0.2,0.1,0.6,0.4c0.3,0.3,1.2,0.7,1.6,0.7
		c1.2,0,2.3-0.5,2.8-1.5c0.3-0.6,0.3-1.5,0.2-2.1c-0.1-0.4-0.6-0.9-0.8-1.2l-0.4-0.3c-1.2-0.8-2.4-0.4-3.7,0.1
		c-0.7,0.3-1.3,0.7-1.9,1.1c-0.1,0-0.1,0.1-0.2,0.1l-0.3,0.3c-0.1,0.1-0.1,0.1-0.1,0.2c-0.1,0.1-0.1,0.1-0.2,0.2
		c-0.3,0.4-0.6,0.8-0.7,1.3c-0.4,1.2-0.3,2.3,0.1,3.5l0.2,0.5c0,0.1,0,0.1,0.1,0.2c0.1,0.1,0.1,0.2,0.2,0.3c0.5,0.8,1.1,1.4,1.7,2.1
		c0.3,0.3,0.6,0.5,0.9,0.7l0.3,0.2c1.2,0.8,1.5,1,2.8,1.5c0.3,0.1,0.5,0.2,0.8,0.2c2.2,0.5,4.6,0.2,6.6-0.7c0.1,0,0.2-0.1,0.2-0.1
		l0.8-0.5c0.3-0.2,0.5-0.4,0.8-0.6c0.4-0.3,0.7-0.7,1.1-1c0.5-0.5,1.1-1.3,1.5-1.9c0.8-1.4,1.3-2.4,1.6-3.9c0.4-1.7,0.4-3.6-0.1-5.3
		c-0.2-0.7-0.4-1.3-0.6-1.9c0-0.1-0.1-0.1-0.1-0.3l1.2,0.6c0.8,0.4,1.6,0.8,2.4,1.2l2.9,1.4c0.8,0.4,1.6,0.8,2.4,1.2
		c0.1,0.1,0.3,0.1,0.4,0.2c0.2,0.1,0.3,0.1,0.4,0.2c0.2,0.6,0.4,1.1,0.6,1.7c0.4,1.1,0.6,2.9-0.1,3.9c-0.2,0.3-0.8,0.8-1.3,0.8
		c-0.6,0-1-0.1-1.5-0.3c-0.5-0.3-0.9-0.8-1.2-1.3c-0.4-0.8-0.6-1.8-0.8-2.7c0-0.1-0.1-0.3-0.1-0.4c-0.1,0.1-0.1,0.2-0.1,0.3l-0.4,1
		c-0.1,0.4-0.3,1.1-0.3,1.6c0,0.3,0,0.4,0,0.9c0.1,0.8,0.3,1.5,0.7,2.1c0.3,0.5,0.7,0.9,1.1,1.2c0.1,0.1,0.2,0.1,0.3,0.2
		c0.4,0.2,0.8,0.5,1.2,0.7c0.7,0.3,1.5,0.5,2.3,0.5c2.4,0,3.7-1.7,4.1-3.7c0.2-1.3,0.3-2.2,0.2-3.5c0-0.2-0.1-0.6-0.1-0.8l1.4,0.7
		c0.5,0.2,1,0.5,1.5,0.7c0.7,0.4,1.5,0.7,2.2,1l0.7,0.3c1.4,0.7,2.9,1.4,4.4,2.1l2.5,1.2c0.1,0.1,0.2,0.1,0.4,0.2l2.9,1.4
		c4,2,9.1,2.8,13.5,1.4c0.1,0,0.1,0,0.2-0.1c0.1,0,0.2,0,0.2-0.1c0.4-0.1,1-0.4,1.4-0.6c0.7-0.3,1.1-0.5,1.7-0.9
		c0.4-0.3,0.8-0.5,1.2-0.8c0.1-0.1,0.1-0.1,0.2-0.1c0.4-0.3,1.3-1.1,1.6-1.4l1.2-1.5c0.2-0.2,0.4-0.5,0.5-0.8l0.4-0.6
		c0-0.1,0.1-0.2,0.1-0.2c0,0.2,0.2,0.7,0.2,0.9c0,0.1,0.1,0.3,0.2,0.4c0,0.1,0.1,0.3,0.2,0.4c0.3,0.8,0.7,1.2,1.2,1.8
		c1.4,1.6,3.3,3,5.3,3.6c0.6,0.2,1.2,0.4,1.9,0.5c1.5,0.3,2.9,0.3,4.4,0.1c1.5-0.2,3-0.7,4.3-1.4c0.5-0.3,1.1-0.6,1.5-0.9
		c0.3-0.2,0.6-0.4,0.9-0.7c0.1-0.1,0.1-0.1,0.2-0.2c0.1-0.1,0.1-0.1,0.2-0.2c0.3-0.3,0.6-0.6,0.9-0.9l0.7-0.8c0.3-0.5,0.7-0.9,1-1.5
		c1.1-2,1.8-4,1.8-6.4c0-1.1-0.1-2-0.2-3c-0.3-1.6-0.7-2.7-1.3-4.1c-0.1-0.2-0.1-0.3-0.2-0.4c-0.4-0.7-0.8-1.5-1.2-2.2l-1-2
		c0-0.1-0.1-0.1-0.1-0.2c-0.3-0.7-0.7-1.3-1.1-2l-0.5-0.9c0-0.1-0.1-0.1-0.1-0.2c-0.1-0.2-0.1-0.3-0.2-0.4c-0.3-0.7-0.7-1.3-1-2
		c0-0.1-0.1-0.1-0.1-0.2c0-0.1-0.1-0.1-0.1-0.2l-2.1-4c-0.2-0.4-0.2-0.3-0.2-0.8c0.2-1.9,0.8-5.3,1.7-7c0.3-0.5,0.8-1.3,1.4-1.3
		s1,0.3,1.3,0.8c0.5,1.2,0.2,2.8,0,4c0,0.2-0.1,0.5-0.1,0.7c0.3-0.1,1.1-0.5,1.4-0.8c1.3-0.9,2.4-2.4,2.4-4.1c0-0.8-0.2-1.5-0.4-2.1
		c0-0.1-0.1-0.2-0.2-0.4c-0.3-0.6-0.8-1.1-1.3-1.5l-0.7-0.4c-1.5-0.9-3.3-0.4-4.6,0.4c-0.2,0.1-0.4,0.2-0.5,0.4
		c-1.2,1.1-1.8,2.6-2.2,4.2c-0.2,0.9-0.4,2-0.5,2.9c0,0.1,0,0.1,0,0.2l-0.2-0.3c-0.1-0.1-0.1-0.2-0.2-0.3c-0.1-0.1-0.1-0.2-0.2-0.3
		l-1-1.9c-0.1-0.1-0.1-0.2-0.2-0.3l-0.3-0.6c-0.1-0.2-0.2-0.4-0.3-0.6c-0.1-0.1-0.1-0.2-0.2-0.3l-0.7-1.3c0-0.1-0.1-0.2-0.2-0.3
		c-0.3-0.6-0.7-1.3-1-1.9l-1-1.9c-0.1-0.1-0.1-0.2-0.2-0.3l-1-1.9c-0.1-0.1-0.1-0.2-0.2-0.3c-0.4-0.9-0.9-1.6-1.3-2.6
		c-0.9-2-1.5-4.1-1.5-6.4c0-1,0.1-1.9,0.2-2.8c0.2-1.1,0.7-2.7,1.2-3.7c0.2-0.3,0.5-0.7,0.8-1c0.5-0.6,1.2-1.1,1.8-1.6
		c0.8-0.6,1.9-1.2,2.8-1.5c1.2-0.4,2.7-0.5,3.9-0.3c0.5,0.1,1.1,0.2,1.6,0.4c1.3,0.5,1.8,0.8,2.9,1.7c0.3,0.2,0.5,0.5,0.8,0.7
		c0.5,0.5,1,1.1,1.4,1.7c0.2,0.4,0.5,1,0.6,1.4c0.6,2.1,0.1,3.9-1.3,5.3c-0.1,0.1-0.1,0.1-0.2,0.1c-0.4,0.4-0.8,0.7-1.3,0.9
		c-0.4,0.2-2.7,1.1-2.7,0c0-0.1,0.2-0.2,0.3-0.3c0.3-0.3,0.5-0.6,0.7-1c0.1-0.3,0.2-0.5,0.2-0.9c0-0.4-0.1-0.6-0.2-0.9
		c-0.2-0.5-0.5-1-1-1.3c-0.4-0.3-1.1-0.5-1.8-0.5c-0.7,0-1,0.1-1.5,0.5c-0.4,0.3-0.7,0.6-0.9,1c-0.2,0.5-0.3,1-0.2,1.6
		c0,0.3,0.1,0.5,0.2,0.7c0.4,1,1,2.1,1.8,2.8c0.8,0.7,1.8,1.2,3,1.2c0.8,0,1.4-0.1,2.2-0.3c0.5-0.2,1-0.4,1.4-0.6
		c0.8-0.5,1.6-1.2,2.2-1.9l0.4-0.4c0.5-0.6,1-1.3,1.3-2c1-1.9,1-3.9,0.4-6c-0.2-0.7-0.5-1.4-0.9-2.1c0-0.1-0.1-0.1-0.1-0.2
		c-0.2-0.2-0.4-0.5-0.6-0.7l-0.7-0.7c-1.2-1.2-2.9-2.2-4.5-2.8c-2.2-0.8-4.7-1-7.1-0.5c-0.6,0.1-1.2,0.3-1.7,0.5
		c-0.2,0-0.4,0.1-0.5,0.2c0-0.1,0.1-0.3,0.2-0.4l1-1.8c0.1-0.1,0.1-0.2,0.2-0.4l0.4-0.7c0.1-0.1,0.1-0.2,0.2-0.4l0.2-0.4
		c0-0.1,0.1-0.1,0.1-0.2s0.1-0.1,0.1-0.2c0.4-0.7,0.8-1.5,1.2-2.2c0.1-0.1,0.1-0.2,0.2-0.4c0.2-0.5,0.5-1,0.8-1.5
		c0-0.1,0-0.1,0.1-0.1c1.3-0.6,4.3-1.4,5.7-0.5c0.8,0.5,1.1,1.2,0.7,2.1c0,0.1-0.1,0.2-0.2,0.3c-0.7,1-1.9,1.4-3,1.6l-1.5,0.3
		c-0.1,0-0.1,0-0.2,0.1c0.3,0.1,1.2,0.4,1.5,0.5c0.5,0.2,1.3,0.3,1.9,0.3c1.3,0,2.3-0.4,3.2-1.2c0.3-0.3,0.6-0.6,0.9-1
		c0.3-0.5,0.6-1.1,0.8-1.7c0.3-1,0.3-2.1-0.3-3.1c-0.5-0.8-1.3-1.3-2.2-1.6c-1-0.3-2.4-0.5-3.6-0.5c-0.3,0-0.6,0-0.9,0l-0.8,0.1
		c0.1-0.1,0.1-0.2,0.2-0.3c0.4-0.7,0.9-1.6,1.2-2.3l2.8-5.2c0.3-0.6,0.6-1.1,0.9-1.6c0.1-0.1,0.1-0.2,0.2-0.3
		c0.1-0.1,0.1-0.2,0.2-0.3l1.2-2.3c0.1-0.1,0.1-0.2,0.2-0.3l1.2-2.3c1.5-3,2.3-6.8,1.4-10.2c-0.1-0.4-0.2-0.9-0.4-1.3
		c-0.1-0.2-0.2-0.4-0.2-0.6c-0.6-1.4-1.4-2.6-2.3-3.8c0,0,0-0.1-0.1-0.1c-0.6-0.7-1.2-1.2-1.9-1.8c-0.5-0.4-1.2-0.9-1.8-1.2
		c-0.5-0.2-0.9-0.5-1.4-0.7c-2.9-1.2-6.1-1.3-9.1-0.3c-1.5,0.5-2.7,1.2-3.9,2.2l-0.8,0.7c-0.4,0.4-1.3,1.4-1.6,1.8
		c-0.4,0.7-0.8,1.6-1,2.4c0,0.1,0,0.2-0.1,0.2c-0.1-0.3-0.8-1.4-1-1.6l-1.7-1.9l-0.5-0.5c-0.2-0.3-0.8-0.7-1.1-0.9
		c-0.8-0.5-1.6-1.1-2.5-1.5c-1.6-0.7-3.3-1.3-5.1-1.4c-2.3-0.2-4.5,0-6.7,0.6c-0.3,0.1-0.6,0.1-0.8,0.2c-0.3,0.1-0.5,0.2-0.8,0.3
		c-0.8,0.4-1.5,0.7-2.2,1.1c-0.1,0.1-0.2,0.1-0.3,0.2c-0.1,0.1-0.2,0.1-0.4,0.2s-0.2,0.1-0.3,0.2c-1.3,0.7-2.7,1.3-4,1.9l-2.2,1
		c-0.1,0.1-0.2,0.1-0.4,0.2l-4,1.9c-0.7,0.3-1.5,0.8-2.2,1c-0.2,0.1-0.5,0.2-0.7,0.3c-0.3,0.1-1.2,0.6-1.5,0.7
		c0-0.3,0.1-0.5,0.1-0.8c0.1-1.2,0-2.3-0.2-3.5c-0.1-0.8-0.3-1.4-0.7-1.9c-1-1.7-3-2.2-4.9-1.6c-0.2,0.1-0.4,0.2-0.7,0.2
		c-0.4,0.2-0.8,0.4-1.2,0.6c-1,0.7-1.7,1.5-2,2.7c-0.2,0.6-0.1,0.7-0.2,1.2c0,0.2,0,0.3,0,0.4c0,0.2,0,0.3,0,0.4
		c0,0.4,0.1,0.8,0.2,1.2l0.3,0.7c0,0.1,0.1,0.2,0.1,0.3c0,0.1,0.1,0.2,0.1,0.3h0c0-0.2,0.3-1.5,0.4-1.7c0.4-1.5,1.3-3.2,3.1-3.2
		c0.6,0,1.1,0.3,1.4,0.8c0.8,1,0.4,2.8,0.1,3.9c-0.1,0.6-0.4,1.2-0.7,1.8c-0.1,0.2-0.1,0.1-0.3,0.2c-0.1,0.1-0.2,0.1-0.4,0.2
		c-1.4,0.6-2.7,1.3-4.1,2l-2,1c-0.9,0.5-2,0.9-2.8,1.4c0-0.1,0.2-0.4,0.2-0.5l0.3-0.8c0-0.1,0.1-0.2,0.1-0.3
		c0.8-2.7,0.7-5.5-0.4-8.1c-0.3-0.7-0.6-1.2-1-1.8c-0.5-0.9-1.2-1.6-1.9-2.3c-0.1-0.1-0.1-0.1-0.2-0.2l-1.5-1.2
		c-0.2-0.2-0.4-0.3-0.7-0.4c-1.4-0.7-3-1.1-4.5-1.1c-0.6,0-1.4,0.1-2,0.2c-0.6,0.1-1.2,0.3-1.7,0.5c-0.2,0.1-0.5,0.2-0.7,0.3
		c-0.8,0.4-1.6,1-2.3,1.6l-1.2,1.2c-0.4,0.5-0.7,0.8-1,1.5c-0.4,0.7-0.7,1.7-0.7,2.6v0.6c0,1,0.6,2.1,1.2,2.8l0.7,0.6
		c0.1,0,0.1,0.1,0.2,0.1c0.6,0.4,1.3,0.8,2,1c1.3,0.5,2.4,0.7,3.6-0.3c0.3-0.2,0.8-0.8,0.9-1.2c0.2-0.7,0.1-1.5-0.2-2.2
		c-0.1-0.3-0.4-0.6-0.6-0.8c-0.6-0.5-1.4-0.7-2.2-0.7c-0.5,0-1.3,0.5-1.7,0.8c-0.1,0.1-0.3,0.4-0.5,0.4c-0.5,0-0.6-0.2-0.6-0.7
		c0-0.6,0.3-1.6,0.6-2.1c0.2-0.4,0.6-0.8,0.9-1.1c0.2-0.2,0.5-0.5,0.7-0.6c1.2-0.9,2.2-1.2,3.8-1.2c1,0,2.6,0.4,3.4,0.9
		c0.4,0.3,0.9,0.6,1.3,0.9c0.1,0.1,0.2,0.1,0.3,0.2c0.1,0,0.1,0.1,0.1,0.1c0.1,0.1,0.6,0.5,0.7,0.7c0.1,0.1,0.2,0.2,0.3,0.3l0.4,0.4
		c0,0,0.1,0.1,0.1,0.1c0.1,0.1,0.1,0.2,0.2,0.3c0.3,0.4,0.6,0.9,0.8,1.3c0.9,1.9,1.1,3.9,0.5,5.9c-0.2,0.6-0.9,1.8-1.3,2.4
		c0,0.1-0.1,0.1-0.1,0.2c-0.1,0.1-0.2,0.2-0.3,0.4c-0.4,0.5-0.8,1-1.3,1.4c-0.1,0.1-0.1,0.1-0.2,0.2c-0.3,0.3-0.6,0.5-0.9,0.7
		c-0.6,0.5-1.1,0.6-1.8,0.9c-3.2,1.1-6.2,1.3-9.7,0.6c-1.5-0.3-3.4-0.9-4.8-1.6l-1.4-0.7c-0.4-0.2-1-0.5-1.5-0.7l-2.9-1.4
		c-1.4-0.7-2.9-1.4-4.4-2.1c-1.1-0.5-2.2-1-3.2-1.6l-2.2-1c-0.1-0.1-0.3-0.1-0.4-0.2c0.2,0,0.3,0,0.4,0c0.4,0,0.9-0.1,1.3-0.1
		c1.5-0.2,3.1-0.6,4.5-1.2l0.9-0.5c0.7-0.4,1.2-1,1.7-1.7c0.4-0.6,0.7-1.4,0.7-2.2c0-0.9-0.1-1.4-0.6-2.2c-0.2-0.4-0.6-0.8-0.9-1.1
		c-0.1-0.1-0.1-0.1-0.1-0.1c-0.4-0.4-0.9-0.7-1.4-0.9c-0.5-0.2-1.4-0.4-1.9-0.4h-0.5c-1.6,0-2.9,0.9-3.8,1.8
		c-0.1,0.1-0.2,0.2-0.3,0.3c-0.3,0.4-0.5,0.5-0.7,1c-0.1,0.1-0.4,0.6-0.4,0.7c0.2,0,2-0.4,3.4-0.4c0.9,0,1.9,0.1,2.5,0.7
		c0.1,0.1,0.1,0.2,0.2,0.3c0,0.1,0,0.3,0.1,0.4c0.1,0.9-1.4,1.6-2.2,1.9l-0.8,0.3c-0.2,0.1-0.4,0.1-0.6,0.2c-1.6,0.5-4.3,0.9-6,1
		c-0.2,0-0.1,0-0.2-0.1c-0.1,0-0.2-0.1-0.2-0.1l-6.2-3c-0.2-0.1-0.3-0.2-0.5-0.2c-0.2-0.1-0.3-0.1-0.5-0.2l-2.5-1.2
		c-0.3-0.2-0.7-0.3-1-0.5L55,40.5c-1-0.5-2.2-0.9-3.2-1.2c-0.8-0.2-2.2-0.5-3.1-0.6c-0.1,0-0.2,0-0.3,0c-1-0.1-2.7-0.1-3.6,0
		c-0.9,0.1-2,0.3-2.8,0.6c-1.8,0.6-3.3,1.3-4.8,2.5c-0.5,0.4-1.4,1.1-1.8,1.6l-0.3,0.3c-0.3,0.4-0.6,0.7-0.9,1.1
		c-0.2,0.3-0.3,0.5-0.5,0.8c-0.1,0.2-0.4,0.6-0.5,0.9h0c0-0.4-0.4-1.4-0.6-1.8c-0.2-0.4-0.4-0.8-0.7-1.1l-0.6-0.7
		c-0.1-0.1-0.2-0.2-0.3-0.3L30.3,42c0,0-0.1-0.1-0.1-0.1l-0.3-0.3c-1.6-1.4-3.9-2.4-6.1-2.8c-0.3-0.1-0.7-0.1-1.1-0.1
		c-0.9-0.1-1.9,0-2.7,0c-0.5,0-1,0.2-1.4,0.3c-1,0.2-2.1,0.6-3.1,1.1C15,40.4,14.4,40.6,14,41l-1,0.7c-1,0.8-2.1,2.1-2.7,3.1
		c-0.3,0.5-0.6,1.1-0.9,1.6l-0.3,0.6C8.5,48.7,8.1,50.2,8.1,52 M73.8,53.1c0.1,0,3.6,1.7,3.9,1.9c1.3,0.6,2.6,1.3,3.9,1.9
		c0.6,0.3,1.3,0.6,2,1l6.8,3.4c0.7,0.3,1.3,0.7,2,0.9l1.1,0.4c1.2,0.4,2.3,0.6,3.6,0.8c0.2,0,0.4,0,0.6,0.1l0.7,0.1
		c1,0,1.8,0.1,2.8,0c1.7-0.1,3.4-0.4,5-0.9c2-0.6,3.3-1.3,5.1-2.2c0.3-0.2,0.6-0.3,1-0.5l12.7-6.3c0.2-0.1,0.3-0.1,0.6-0.1
		c1.1,0.1,2.2,0.2,3.2,0.4c1.6,0.3,5.5,1,6.4,2.3c0.2,0.3,0.2,0.8,0,1.1c-0.6,0.9-2.1,0.9-3.1,0.9c-0.1,0-0.2,0-0.3,0
		c-0.2,0-0.5,0-0.7-0.1l-1.9-0.3c0,0.1,0.1,0.2,0.2,0.3c0.1,0.1,0.1,0.2,0.2,0.3c0.4,0.7,0.9,1.3,1.5,1.8c0.2,0.2,0.4,0.3,0.6,0.5
		c0.2,0.1,0.5,0.3,0.7,0.4c0.7,0.3,1.5,0.5,2.3,0.5c0.1,0,0.4,0,0.5,0c1-0.1,1.6-0.3,2.4-0.9c0.8-0.6,1.6-1.4,2-2.4
		c0.5-1.3,0-2.5-0.5-3.5c-0.1-0.1-0.1-0.2-0.2-0.3c0,0-0.1-0.1-0.1-0.1c-0.6-0.8-1.1-1.1-2-1.6c-0.2-0.1-0.5-0.2-0.7-0.3
		c-0.3-0.1-0.5-0.2-0.8-0.3c-0.6-0.2-1.1-0.3-1.7-0.5c-0.6-0.1-1.2-0.2-1.9-0.3c-0.3,0-0.7-0.1-1-0.1c-0.3,0-0.7,0-1.1,0l0,0
		l0.4-0.2c4-2,8.1-4,12.2-6c0.3-0.1,0.5-0.2,0.8-0.4l0.6-0.3c0.7-0.3,1.4-0.7,2.2-1c0.4-0.2,0.8-0.3,1.3-0.5
		c2.8-0.9,5.2-1.3,8.2-0.9c0.9,0.1,2.1,0.4,2.9,0.7c0.9,0.3,1.8,0.8,2.6,1.5c0.1,0.1,0.2,0.2,0.3,0.2c0.3,0.2,0.6,0.5,0.9,0.8
		c0.3,0.3,0.6,0.6,0.8,0.9c0.4,0.5,0.8,1.1,1.2,1.7c0.2,0.4,0.4,0.8,0.6,1.2c0.3,0.8,0.6,2.2,0.5,3c-0.2,1.5-0.3,2.2-1.1,3.6
		c-0.3,0.5-0.6,0.9-1,1.4l-2.1,2c-0.3,0.2-0.7,0.5-1.1,0.7c-0.3,0.1-0.6,0.2-0.8,0.3c-1.6,0.5-3.3,0.7-4.9,0
		c-0.4-0.2-0.8-0.4-1.1-0.6l-0.5-0.4c-0.2-0.2-0.4-0.4-0.6-0.6c-0.1-0.1-0.1-0.1-0.1-0.2c-0.1-0.1-0.2-0.2-0.3-0.3
		c-0.5-0.6-1-1.9-0.9-2.6c0-0.4,0.2-0.6,0.6-0.6c0.2,0,0.2,0.2,0.3,0.2c0.1,0.1,0.2,0.2,0.3,0.3c0.2,0.2,0.4,0.3,0.7,0.4
		c2.1,0.9,4.7-0.9,3.9-3.6c-0.1-0.3-0.3-0.5-0.4-0.8c-0.8-1.1-2.1-1.4-3.4-0.9c-0.4,0.1-0.9,0.3-1.3,0.5c-0.1,0.1-0.3,0.1-0.4,0.2
		c-0.6,0.4-0.8,0.4-1.4,0.9c-0.6,0.5-1.2,1.2-1.5,2.1c-0.5,1.6-0.1,3.3,0.7,4.7c0.1,0.2,0.3,0.4,0.5,0.7c0.3,0.4,0.7,0.8,1.1,1.2
		c0.1,0.1,0.2,0.2,0.3,0.3l0.3,0.3c0.4,0.4,0.9,0.7,1.4,1c0.5,0.3,1,0.6,1.5,0.8c2.6,1,5.3,0.8,7.8-0.2c0.5-0.2,1-0.5,1.5-0.9
		c0.4-0.3,0.9-0.7,1.3-1.1l1.1-1.2c0.5-0.7,1-1.4,1.4-2.1c0.1-0.3,0.3-0.5,0.4-0.8c0.3-0.9,0.6-1.8,0.8-2.7c0-0.3,0.1-0.7,0.1-1.1
		c0.1,0.1,0.2,0.2,0.2,0.3c0.1,0.1,0.1,0.2,0.2,0.3l0.4,0.4c0.4,0.4,0.8,0.8,1.3,1.2c0.9,0.7,1.7,1.2,2.9,1.6
		c1.6,0.4,3.1,0.3,4.4-0.7c0.2-0.2,0.4-0.3,0.6-0.5c0.8-0.8,1.2-1.8,1.7-2.8c0.2-0.6,0.3-1.2,0.1-1.9c-0.6-1.7-2.8-2.3-4.3-1.3
		c-0.4,0.3-0.8,0.7-1,1.2c-0.4,1.1,0,2.4,1,3.1c0,0.5-0.2,0.6-0.7,0.6c-0.5,0-1.5-0.3-2-0.5c-0.5-0.3-1.2-0.7-1.6-1.2l-0.4-0.5
		c-0.9-1.1-1.2-2.3-1-3.8c0.1-0.8,0.3-1.4,0.6-2.1c0.1-0.3,0.4-0.6,0.6-0.9l0.6-0.7c0.3-0.4,0.7-0.8,1.1-1.1
		c0.8-0.7,1.9-1.4,2.9-1.7c1.3-0.4,1.8-0.5,3.2-0.5c0.6,0,1.6,0.1,2.2,0.3c0.1,0,0.3,0.1,0.4,0.2c1.1,0.5,2.2,1.1,3.1,1.8
		c0.3,0.3,0.7,0.6,1,0.9l0.6,0.7l0.8,1.1c0.5,0.8,0.9,1.7,1.1,2.6c0.1,0.7,0.2,0.7,0.3,1.6c0,0.3,0.1,0.8,0.1,1.1c0,0.2,0,0.4,0,0.6
		c0,0.2,0,0.4,0,0.6c0,0.4-0.1,0.8-0.1,1.1c-0.3,1.9-0.8,3.5-1.6,5.1l-0.2,0.4c-0.4,0.7-0.8,1.5-1.2,2.2c0,0.1-0.1,0.1-0.1,0.2
		c0,0.1-0.1,0.1-0.1,0.2l-0.5,1c0,0.1-0.1,0.1-0.1,0.2l-1,1.8c-0.1,0.1-0.1,0.3-0.2,0.4l-0.9,1.6c-0.1,0.1-0.2,0.3-0.2,0.4
		c0,0.1-0.1,0.1-0.1,0.2l-2.5,4.6c-0.1,0.1-0.1,0.3-0.2,0.4l-0.2,0.4c0-0.7-0.1-1.3-0.1-1.9c-0.2-1.9-0.8-4-2-5.5l-0.4-0.4
		c0,0-0.1,0-0.1-0.1c-0.2-0.2-0.5-0.4-0.8-0.5c-1.1-0.7-2.4-1-3.7-0.6c-0.2,0.1-0.5,0.2-0.7,0.3c-1,0.6-2,1.7-2.3,2.9
		c-0.4,1.6-0.2,2.8,0.7,4.1c0.1,0.1,0.1,0.2,0.2,0.3c0.1,0.1,0.2,0.2,0.2,0.3c0.6,0.6,1,0.9,1.8,1.3c0.1,0.1,0.5,0.3,0.7,0.3
		c-0.1-0.2-0.3-1.4-0.3-1.7c0-0.2,0-0.4-0.1-0.6l0-1.3c0-0.7,0.2-1.5,0.8-1.9c0.3-0.2,0.8-0.2,1.1,0c0.3,0.1,0.5,0.4,0.7,0.7
		c0.9,1.2,1.4,3.6,1.7,5.1c0.1,0.8,0.3,1.6,0.3,2.3c0,0.2,0,0.4,0.1,0.6c0,0.2,0.1,0.3-0.1,0.5l-1,1.8c0,0.1-0.1,0.1-0.1,0.2
		c-0.5,1-1.2,2.1-1.7,3.1c-0.2,0.4-0.4,0.7-0.6,1.1l-1.2,2.2c-0.4,0.7-0.8,1.5-1.2,2.2l-1.2,2.2c-0.1,0.1-0.1,0.3-0.2,0.4l-1.1,2.2
		l-0.7,2c0,0.2-0.1,0.4-0.1,0.5c-0.3,1-0.4,1.8-0.5,2.9c0,0.2,0,0.4,0,0.6c0,0.3,0,1.8,0,2c0,0.4,0,0.8,0.1,1.2
		c0.2,1.9,1,4.6,1.9,6.2c0.1,0.1,0.2,0.3,0.2,0.4l0.2,0.4c0.1,0.1,0.1,0.3,0.2,0.4c0.2,0.4,0.5,0.9,0.7,1.3l1.9,3.5
		c0.1,0.1,0.1,0.3,0.2,0.4c0,0.1,0.1,0.1,0.1,0.2c0,0.1,0.1,0.1,0.1,0.2c0.1,0.1,0.1,0.3,0.2,0.4c0.1,0.1,0.2,0.3,0.2,0.4
		c0,0.1,0.1,0.1,0.1,0.2l0.3,0.6c0.1,0.1,0.2,0.3,0.2,0.4l0.4,0.7c0,0.1,0.1,0.1,0.1,0.2c0.2,0.4,0.5,0.9,0.7,1.3l1.7,3.1
		c0.1,0.1,0.1,0.3,0.2,0.4c0,0.1,0.1,0.1,0.1,0.2c0,0.1,0.1,0.1,0.1,0.2c-0.2,0-0.8-0.2-1.5-0.2c-0.1,0-0.2,0-0.4,0
		c-0.7,0-1.4,0-2,0.1c-0.7,0.1-1.4,0.2-2.1,0.5c-1.2,0.5-2.1,1.4-2.3,2.8c-0.2,1.2,0.2,2.3,0.8,3.3c0.1,0.2,0.2,0.4,0.3,0.5
		c0.3,0.3,0.5,0.6,0.8,0.9c0.3,0.2,0.7,0.5,1.1,0.6c0.9,0.4,2,0.5,2.9,0.4c0.5-0.1,0.9-0.1,1.4-0.3c0.2-0.1,1.1-0.3,1.3-0.4
		c-0.8-0.2-1.7-0.3-2.4-0.5c-0.2-0.1-0.4-0.1-0.5-0.2c-1-0.4-2-1.2-2-2.4c0-0.5,0.2-0.7,0.5-1c0.1-0.1,0.2-0.2,0.4-0.3
		c1.3-0.8,3.6-0.1,4.9,0.3l0.8,0.3c0.1,0.1,0.1,0.1,0.2,0.2l1.6,2.8c0.2,0.3,0.4,0.6,0.5,1c0.1,0.2,0.2,0.3,0.3,0.5
		c0,0.1,0.1,0.1,0.1,0.2c0.6,1,1.1,2.1,1.8,3.1l1.1,1.9c0.9,1.6,1.9,3.2,2.6,4.9c0.5,1.1,0.7,2.2,0.9,3.5c0.1,0.7,0.1,1.4,0.1,2.1
		c0,0.1,0,0.2,0,0.4c0,0.4-0.1,1.3-0.2,1.7c-0.2,0.8-0.3,1.6-0.7,2.3c-0.1,0.2-0.1,0.3-0.2,0.5c-0.1,0.2-0.2,0.3-0.3,0.5
		c-0.2,0.3-0.4,0.6-0.6,0.9c-0.2,0.3-0.6,0.7-0.9,1c-0.1,0.1-0.1,0.1-0.2,0.2c-0.1,0.1-0.1,0.1-0.2,0.2c-0.5,0.5-1.1,0.9-1.7,1.3
		c-0.3,0.2-0.6,0.4-0.9,0.5c-0.1,0-0.1,0.1-0.2,0.1c-0.3,0.2-0.7,0.3-1,0.5c-0.2,0.1-0.3,0.1-0.5,0.2c-0.5,0.1-1.1,0.2-1.6,0.3
		c-0.2,0-0.2,0-0.3,0c-1.4,0-2.5-0.2-3.7-0.7c-0.7-0.3-1.3-0.7-1.9-1.1l-1-0.9c-0.4-0.4-0.8-0.9-1.2-1.4c-0.1-0.1-0.2-0.3-0.3-0.4
		c0-0.1-0.1-0.1-0.1-0.2c-0.1-0.2-0.2-0.5-0.3-0.8c-0.4-1-0.6-2.1-0.3-3.2c0-0.2,0.1-0.4,0.1-0.6c0.1-0.2,0.1-0.3,0.2-0.5
		c0.1-0.3,0.4-0.6,0.6-0.9l0.3-0.4c0.2-0.3,0.9-0.8,1.2-1c0.6-0.4,1.5-0.7,2.2-0.8c0.6-0.1,0.9,0,0.9,0.5c-1.5,1-1.6,3.3,0,4.3
		c0.5,0.3,0.9,0.5,1.7,0.5c0.3,0,0.7-0.1,0.9-0.2c0.5-0.1,1-0.5,1.3-0.9c0.3-0.4,0.6-1.1,0.5-1.7c0-0.4-0.1-0.6-0.2-0.9
		c-0.6-1.5-1.5-3-2.9-3.8c-1.2-0.6-2.4-0.6-3.7-0.3c-0.6,0.1-1.5,0.5-1.9,0.8c-0.4,0.3-0.9,0.6-1.3,1l-1,1c-0.3,0.3-0.5,0.6-0.8,0.9
		c0,0.1-0.1,0.1-0.1,0.2c-0.1-1.4-0.4-2.8-1-4.1c-0.1-0.2-0.2-0.5-0.3-0.7c-0.4-0.7-0.6-1.1-1.2-1.9c-0.2-0.3-0.4-0.6-0.7-0.8
		c-0.2-0.2-0.3-0.4-0.5-0.5l-0.8-0.7c-0.8-0.6-1.3-1-2.2-1.4c-0.4-0.1-0.7-0.3-1.1-0.4c-0.5-0.1-1.1-0.3-1.7-0.3
		c-1.2-0.1-2.5,0-3.7,0.3c-1.1,0.3-2,0.8-2.8,1.3l-0.9,0.6c-0.1,0-0.1,0.1-0.1,0.1l-0.4,0.3c-0.1,0.1-0.2,0.1-0.3,0.2
		c-0.3,0.2-0.9,1-1.2,1.3c-0.6,0.7-0.9,1.5-1.2,2.4c-0.1,0.3-0.1,0.5-0.2,0.9c-0.1,0.6,0,1.4,0.2,1.8c0.1,0.4,0.3,0.7,0.5,1
		c0.1,0.1,0.1,0.2,0.2,0.3c0.3,0.4,0.6,0.7,1,1c0.7,0.5,1.5,0.9,2.3,1.2c1,0.4,1.8,0.6,2.9,0c0.3-0.1,0.5-0.3,0.7-0.5
		s0.4-0.5,0.5-0.8c0.9-1.7-0.3-3.7-2.1-4c-0.6-0.1-1.2,0-1.8,0.2c-0.3,0.1-0.5,0.3-0.8,0.5c-0.1,0-0.1,0.1-0.1,0.1
		c-0.1,0.1-0.2,0.2-0.2,0.3c-0.2,0-0.4,0-0.5-0.1c-0.5-0.4,0.1-2.1,0.4-2.5c0.2-0.4,0.5-0.8,0.8-1.1c0,0,0.1-0.1,0.1-0.2
		c0.1-0.2,0.3-0.3,0.5-0.5c0.8-0.7,2.2-1.3,3.3-1.3c0.2,0,0.4,0,0.6,0c0.2,0,0.4,0,0.6,0c0.9,0.1,2.2,0.4,3,1c0.5,0.3,1,0.7,1.5,1.1
		l0.5,0.5c0.1,0.1,0.1,0.1,0.2,0.1l0.5,0.5c0.4,0.5,0.9,1.1,1.2,1.7c1,1.9,1.3,3.6,0.7,6c-0.1,0.5-0.4,0.9-0.6,1.4
		c-1,1.7-2.4,3.5-4.1,4.5c-0.1,0.1-0.3,0.2-0.4,0.2s-0.3,0.1-0.4,0.2c-0.8,0.4-1.5,0.7-2.4,0.9c-0.4,0.1-0.7,0.1-1.1,0.2
		c-0.8,0.2-2.5,0.3-3.4,0.2c-0.1,0-0.2,0-0.3,0c-2-0.2-3.7-0.5-5.4-1.2c-0.6-0.2-1.2-0.5-1.8-0.8l-2.2-1.1c-0.2-0.1-0.3-0.1-0.4-0.2
		l-8.4-4c-0.1-0.1-0.3-0.1-0.5-0.2l-2.6-1.3c-0.1-0.1-0.3-0.1-0.4-0.2c-0.1,0-0.1-0.1-0.2-0.1c0,0-0.1,0-0.1,0l-0.1-0.1
		c0.2,0,0.3,0,0.5,0c0.2,0,0.3,0,0.5,0c0.7,0,2.4-0.3,2.9-0.4c1.6-0.4,3.3-0.9,4.6-2c0.8-0.6,1.4-1.8,1.6-2.8c0.4-2.1-1-3.9-2.8-4.7
		c-0.7-0.3-2-0.5-2.8-0.5c-0.5,0-0.9,0.1-1.4,0.3c-0.1,0-0.3,0.1-0.4,0.1c-0.7,0.3-1.6,0.9-2.1,1.5c-0.3,0.4-0.6,0.7-0.8,1.1
		c-0.1,0.2-0.3,0.5-0.4,0.7c0.4,0,0.9-0.1,1.2-0.2c0.4-0.1,0.9-0.1,1.3-0.2l1,0c0.2,0,0.2,0,0.3,0c0.7,0,1.7,0.2,2.1,0.8
		c0.2,0.3,0.2,0.8,0,1.1c-0.1,0.2-0.3,0.4-0.5,0.5c-1.3,1-4.3,1.5-5.9,1.8c-0.4,0.1-0.8,0.1-1.3,0.2l-1.3,0.2c-0.3,0-0.7,0.1-1,0.1
		c-0.2,0-0.2,0-0.3-0.1l-8.8-4.3c-0.3-0.2-0.6-0.3-1-0.5l-5.4-2.6c-0.1,0-0.1-0.1-0.2-0.1c-0.1,0-0.2-0.1-0.2-0.1
		c-1.2-0.6-1.7-0.8-3.2-1.2c-0.4-0.1-0.7-0.2-1.1-0.3c-0.4-0.1-0.8-0.2-1.2-0.2c-0.6-0.1-1.3-0.2-1.9-0.3c-0.2,0-0.5,0-0.7,0
		c-0.1,0-0.2,0-0.3,0c-0.2,0-0.2,0-0.3,0c-0.9,0-1.9,0-2.8,0.1c-0.2,0-0.4,0-0.6,0.1c-1.6,0.2-3.2,0.6-4.7,1.1c-1.1,0.4-2,0.9-3,1.4
		l-5.9,2.9c-0.6,0.3-1.3,0.6-2,1l-6.8,3.4c-1.1,0.5-1,0.8-0.9-0.3c0-0.2,0.1-0.5,0.1-0.8c0-0.1,0-0.2,0-0.4c0-1.6-0.2-3.6-1.2-4.9
		l-0.2-0.2c-0.8-1-2.6-1.5-3.9-1.1c-1.1,0.3-1.9,0.6-2.7,1.2c-1,0.7-1.7,1.7-1.9,2.9c-0.1,0.5-0.1,1-0.1,1.6c0,0.7,0.3,1.4,0.5,2.1
		c0,0.1,0.1,0.2,0.1,0.3c0,0.1,0.1,0.2,0.1,0.3h0c0-0.3,0.2-1,0.3-1.3c0.2-1.2,0.7-2.3,1.7-3.1c0.3-0.2,0.7-0.4,1.1-0.5
		c0.6-0.1,0.9,0,1.3,0.2c0.3,0.2,0.6,0.5,0.7,0.8c0.8,1.5,0,3.7-0.6,5.1c-0.2,0.6-0.2,0.5-0.8,0.8l-2.1,1.1
		c-0.2,0.1-0.3,0.2-0.5,0.3l-3.1,1.6c-0.2,0.1-0.3,0.2-0.5,0.3l-2.1,1.1c-0.7,0.3-1.4,0.7-2.1,1.1l-1,0.5c-0.4,0.2-0.7,0.4-1.1,0.5
		l-1.6,0.8c-1.6,0.7-3.9,1.4-5.5,1.5c-0.8,0.1-2.1,0.2-3,0.1l-0.7,0c-0.2,0-0.5,0-0.7-0.1c-0.4-0.1-0.9-0.2-1.3-0.3
		c-1.1-0.2-2-0.6-2.8-1.1c-0.2-0.1-0.3-0.2-0.5-0.3c-0.4-0.3-1-0.7-1.3-1c-0.3-0.3-0.5-0.5-0.8-0.8c-0.1-0.1-0.1-0.1-0.2-0.2
		c-0.5-0.6-0.9-1.1-1.3-1.8c-0.5-0.8-0.9-1.5-1.1-2.5c-0.3-1.4-0.2-2.8,0.2-4.1c0.4-1.1,1-2.1,1.8-3c0.1-0.1,0.1-0.1,0.2-0.2
		c0.3-0.3,1-1,1.4-1.3c0.6-0.5,1.2-0.9,2-1.2c0.7-0.3,1.4-0.5,2.2-0.6c2-0.2,3.7,0.5,4.9,1.7l0.4,0.4c0.1,0.1,0.1,0.1,0.2,0.2
		c0.1,0.1,0.1,0.1,0.2,0.2c0.2,0.3,0.4,0.7,0.5,1c0.2,0.4,0.5,1.4,0.2,1.9c-0.1,0.2-0.3,0.2-0.6,0.2c-0.1-0.2-0.3-0.3-0.5-0.5
		c-2.2-1.7-5.4,0.2-4.7,2.9c0.2,1,1.1,1.8,2.1,2c0.6,0.1,1.3,0.1,1.8-0.1c1-0.4,1.9-0.7,2.7-1.4l0.6-0.5c0.5-0.5,0.9-1.1,1.1-1.8
		c0.6-1.7,0-3.5-0.9-4.8c-0.4-0.6-1.4-1.6-2-2.1c0,0-0.1,0-0.1-0.1l-0.4-0.3c-1-0.8-2.2-1.4-3.4-1.8c-1-0.3-2.5-0.5-3.7-0.3
		c-1.2,0.2-2.1,0.3-3.2,0.8c-1.2,0.5-2.2,1.5-3.2,2.4l-0.2,0.3c0,0-0.1,0.1-0.1,0.1c0,0.1-0.1,0.1-0.1,0.1c-0.4,0.5-0.8,1-1.1,1.5
		c-0.8,1.4-1.4,2.9-1.7,4.5c0,0.2-0.1,0.8-0.1,0.9c-0.1,0-0.4-0.5-0.5-0.6l-1.5-1.5c-0.9-0.8-1.9-1.4-3-1.7
		c-1.3-0.3-2.5-0.3-3.7,0.3c-0.7,0.4-1.3,0.9-1.8,1.6c-0.5,0.6-1.1,1.8-1.3,2.6c-0.2,0.8,0,1.6,0.4,2.2c1.3,1.7,4.1,1.4,5-0.6
		c0.3-0.7,0.2-1.6-0.2-2.2c-0.2-0.3-0.5-0.7-0.8-0.9c0-0.8,1-0.6,1.5-0.4c0.2,0,0.4,0.1,0.6,0.2c0.6,0.2,1.1,0.5,1.6,0.9
		c0,0,0,0,0.1,0.1c0.3,0.2,0.4,0.4,0.7,0.6s0.4,0.5,0.6,0.9c0.2,0.4,0.4,0.8,0.5,1.4c0.2,0.8,0.1,1.8-0.1,2.6
		c-0.1,0.4-0.2,0.7-0.4,1.1c0,0.1-0.1,0.1-0.1,0.2c-0.2,0.4-1.1,1.5-1.5,1.9l-0.8,0.7c-0.1,0.1-0.3,0.2-0.4,0.3
		c-2,1.5-4.4,2.2-6.9,1.7c-0.6-0.1-1.1-0.2-1.7-0.5c-0.5-0.2-1-0.5-1.5-0.8c-0.3-0.2-0.6-0.4-0.9-0.6c-0.1-0.1-0.3-0.2-0.4-0.3
		c-0.1-0.1-0.1-0.1-0.2-0.2c-0.5-0.4-0.9-0.8-1.3-1.3l-0.3-0.4c-0.9-1.2-1.5-2.7-1.8-4.2c0-0.2-0.1-0.4-0.1-0.6
		c-0.1-0.9-0.1-1.9,0-2.8c0-0.2,0-0.4,0.1-0.7c0.1-0.9,0.4-2.2,0.7-3c0.1-0.2,0.1-0.3,0.2-0.5c0.6-1.4,1.3-2.6,2-3.9
		c0.4-0.6,0.7-1.3,1.1-1.9c0.4-0.6,0.7-1.3,1.1-1.9c0.5-0.9,1.1-1.9,1.6-2.9l1.6-2.8c0.1-0.2,0.5-1.1,0.7-1.1l0.8-0.3
		c0.8-0.3,1.6-0.5,2.4-0.6c0.7-0.1,0.8-0.1,1.4,0c0.8,0,1.6,0.4,1.9,1c0.1,0.2,0.2,0.3,0.2,0.5c0,0.7-0.3,1.3-0.8,1.8
		c-0.3,0.3-0.7,0.5-1.2,0.7c-1,0.4-2,0.5-3,0.7c0,0,0,0,0.1,0c0,0,0.1,0,0.1,0c0.1,0,0.1,0,0.1,0c0.3,0.1,0.6,0.2,0.9,0.3
		c0.9,0.3,2,0.4,3,0.3c0.9-0.1,1.7-0.4,2.4-1c0.3-0.3,0.6-0.5,0.8-0.9c0.1-0.1,0.2-0.3,0.3-0.5c0.1-0.2,0.2-0.3,0.3-0.5
		c0.2-0.4,0.3-0.8,0.5-1.2c0.3-1,0.1-2.1-0.3-2.7c-0.8-1.4-2.4-1.8-3.9-2c-0.7-0.1-1.3-0.1-2-0.1c-0.4,0-1.2,0.1-1.5,0.1
		c-0.1,0-0.3,0.1-0.4,0.1c0-0.2,0.4-0.7,0.5-0.9l1.3-2.4c0-0.1,0.1-0.1,0.1-0.2l1.9-3.5c0-0.1,0.1-0.1,0.1-0.2l0.6-1.1
		c0-0.1,0.1-0.1,0.1-0.2l1-1.8c0-0.1,0.1-0.1,0.1-0.2c0.1-0.1,0.2-0.3,0.2-0.4c0.5-0.8,0.9-1.6,1.3-2.4l0.2-0.4
		c0-0.1,0.1-0.1,0.1-0.2l0.9-1.8c0.9-1.7,1.4-3.8,1.7-5.8c0.1-0.9,0.1-1.7,0.1-2.6c0-0.1,0-0.2,0-0.3c0-0.1,0-0.2,0-0.3
		c-0.1-1.2-0.3-2.3-0.6-3.5c-0.2-0.7-0.4-1.4-0.7-2.1c-0.1-0.2-0.1-0.3-0.2-0.5c-0.2-0.5-0.4-0.9-0.7-1.4l-1-1.7
		c-0.2-0.4-0.5-0.9-0.7-1.3l-1.9-3.5c-0.1-0.1-0.2-0.3-0.2-0.4c-0.1-0.2-0.1-0.3-0.2-0.4l-2.9-5.2c-0.1-0.2-0.8-1.4-0.8-1.5
		c0-0.2,0.2-1.8,0.2-2.1c0.3-1.6,0.5-2.9,1-4.4c0.2-0.5,0.3-1,0.6-1.4c0.2-0.4,0.5-0.9,0.9-1.1c0.3-0.2,0.8-0.2,1.1,0
		c0.3,0.1,0.5,0.4,0.6,0.7c0.2,0.5,0.3,1.5,0.2,2.1c0,0.1,0,0.2,0,0.3c0,0.4-0.3,2.1-0.4,2.3c0.1,0,0.8-0.4,1-0.5l0.8-0.5
		c0,0,0.1-0.1,0.1-0.1c0.3-0.3,0.7-0.7,1-1.1c0.9-1.3,1.1-2.5,0.7-4.1c-0.1-0.4-0.3-0.7-0.5-1.1c-1.2-1.8-3.1-2.8-5.2-2
		c-0.5,0.2-1,0.4-1.4,0.7c-0.4,0.3-0.7,0.6-1.1,1c-0.2,0.2-0.3,0.4-0.4,0.6c-0.8,1.4-1.3,3.1-1.5,4.7c-0.1,0.6-0.1,1.3-0.1,1.9
		c-0.1-0.1-0.3-0.6-0.4-0.8l-3.7-6.8c0-0.1-0.1-0.1-0.1-0.2L16.3,65c0-0.1-0.1-0.1-0.1-0.2c0-0.1-0.1-0.1-0.1-0.2
		c0-0.1-0.1-0.1-0.1-0.2l-2.2-4c0-0.1-0.1-0.1-0.1-0.2l-0.4-0.8c-0.1-0.1-0.1-0.3-0.2-0.4c-0.1-0.3-0.2-0.5-0.4-0.8
		c-0.4-0.9-0.7-1.8-0.9-2.8c-0.1-0.3-0.1-0.7-0.2-1.1c-0.1-0.8-0.2-1.6-0.1-2.3l0.1-1.1c0-0.4,0.1-0.7,0.2-1.1
		c0.1-0.6,0.3-1.3,0.6-1.9c0.1-0.3,0.2-0.6,0.4-0.8c0.1-0.2,0.3-0.5,0.5-0.8c0.1-0.1,0.2-0.2,0.3-0.4l0.4-0.6
		c0.1-0.1,0.1-0.1,0.1-0.2c0.2-0.2,0.4-0.4,0.6-0.6l0.3-0.3c1-0.9,2.2-1.6,3.4-2.1c0.3-0.1,0.6-0.2,1-0.3c0.2,0,0.3-0.1,0.5-0.1
		c0.7-0.1,1.5-0.1,2.3-0.1c0.3,0,0.8,0.1,1.1,0.2c0.5,0.1,0.9,0.3,1.4,0.4c0.4,0.2,0.8,0.4,1.2,0.6c0.4,0.3,1.2,0.8,1.6,1.2l1.1,1.1
		c0,0.1,0.1,0.1,0.1,0.2c0,0.1,0.1,0.1,0.1,0.2c0.4,0.5,0.6,0.9,0.9,1.6c1,2.6,0.3,4.9-1.9,6.5c-0.5,0.4-1.1,0.6-1.7,0.8
		c-0.4,0.1-1.2,0.3-1.6,0.1c-0.1-0.1-0.2-0.2-0.2-0.5c0.4-0.2,0.8-0.8,1-1.2c0.2-0.6,0.2-1.3,0-1.9c-0.3-0.8-0.9-1.3-1.7-1.6
		c-1.5-0.5-3.1,0.2-3.6,1.7c-0.3,0.8-0.1,1.5,0.2,2.2l0.3,0.8c0,0.1,0.1,0.1,0.1,0.2c0,0.1,0.1,0.1,0.1,0.2c0.5,0.9,1.3,1.8,2.2,2.2
		c1.8,0.9,3.7,0.5,5.3-0.3c1-0.5,2.3-1.8,3-2.6l0.4-0.5c0-0.1,0.1-0.1,0.1-0.2l0.1,1.1c0,0.2,0.1,0.4,0.1,0.5
		c0.2,0.8,0.4,1.7,0.8,2.4c0.3,0.6,0.6,1.1,0.9,1.7c0.3,0.4,0.6,0.9,1,1.3c0.1,0.1,0.1,0.1,0.1,0.2l0.3,0.3c0.3,0.3,0.5,0.6,0.8,0.8
		c0.4,0.3,0.8,0.7,1.3,1c0.1,0.1,0.3,0.2,0.4,0.2c0.1,0.1,0.3,0.1,0.4,0.2c1.3,0.6,2.3,0.8,3.7,0.9c0.4,0,0.8,0,1.2,0
		s0.8-0.1,1.2-0.1c0.9-0.1,1.7-0.4,2.4-0.8l0.8-0.5c0.1-0.1,0.3-0.2,0.4-0.2c0.4-0.3,0.9-0.6,1.3-1c0.1-0.1,0.1-0.1,0.2-0.2
		c0.2-0.2,0.4-0.4,0.7-0.6c0.7-0.8,1.2-1.3,1.6-2.3c0.5-1.2,0.7-2.5,0.3-3.8c-0.1-0.5-0.4-0.9-0.7-1.3c-0.3-0.4-0.6-0.7-1-1
		c-0.9-0.7-2-1.2-3.1-1.5c-0.7-0.2-1.6-0.1-2.2,0.2c-0.9,0.4-1.5,1.3-1.6,2.3c-0.1,0.8,0.2,1.4,0.6,2c0.2,0.2,0.4,0.5,0.7,0.6
		c1.2,0.8,2.7,0.6,3.8-0.5c0.1-0.1,0.1-0.1,0.1-0.2c0.2-0.2,0.6,0,0.7,0.1c0.3,0.5-0.2,1.8-0.4,2.3L48.5,58c-0.7,1-1.8,1.9-2.9,2.3
		c-1.5,0.5-2.9,0.4-4.5-0.1c-1.2-0.4-1.7-0.7-2.7-1.6c0,0,0,0-0.1-0.1l-0.3-0.2c-0.3-0.2-0.8-0.8-1.1-1.2c-0.1-0.1-0.2-0.2-0.3-0.4
		c-1.3-1.7-2-3.8-1.7-6c0.1-0.9,0.4-1.9,0.9-2.7c0.6-1,0.7-1.2,1.5-2.2l0.6-0.7c1-1,2.1-1.8,3.5-2.4c1-0.4,2-0.7,3.1-0.8
		c1.5-0.2,3.4-0.2,4.9,0c0.7,0.1,1.5,0.3,2.2,0.4c0.8,0.2,1.6,0.5,2.4,0.8l2.6,1.3c0.1,0.1,0.3,0.1,0.4,0.2c0.6,0.3,2,1,2.6,1.3
		l2.6,1.3c0.3,0.1,0.5,0.3,0.8,0.4c0.1,0.1,0.3,0.1,0.4,0.2l3.9,2c0.5,0.2,1,0.5,1.5,0.8c0.3,0.2,0.3,0.1,0.4,0.5
		c0.4,0.9,0.8,2,0.9,3c0.2,1.2,0,2.7-1.2,3.3c-0.4,0.2-0.7,0.2-1.1,0.1c-1.3-0.2-2.2-1.5-2.5-2.7c-0.1-0.4-0.2-0.7-0.3-1
		c-0.1-0.3-0.2-0.8-0.2-1.1h0c0,0.5-1.2,2.1-0.7,4.3c0.1,0.4,0.3,0.9,0.5,1.3c0.9,1.6,2.4,2.4,4.2,2.8c0.9,0.2,2.1,0.1,2.9-0.4
		c0.2-0.1,0.4-0.2,0.5-0.3c0.2-0.1,0.3-0.3,0.4-0.4c0.1-0.1,0.3-0.3,0.4-0.5c0.4-0.6,0.6-1.2,0.7-1.9c0.2-1,0.3-1.8,0.3-2.8
		c0-0.4-0.1-1.2-0.2-1.6C73.8,53.4,73.8,53.3,73.8,53.1z"/>
	<path class="st0" d="M97.6,84.3h2.2c0.1,0,0.1-0.1,0.1-0.3c0.3-1.4,0.7-2.9,1-4.3c0.2-0.8,0.4-1.8,0.9-2.5c0.3-0.5,0.7-0.9,1.1-1.3
		c0.3-0.3,0.7-0.6,1.1-0.8c0.3-0.2,0.9-0.6,1.3-0.6c0.2,0,0.5,0,0.5,0.3s-0.2,1.2-0.3,1.6l-0.7,2.5c-0.3,0.9-0.6,2.2-0.8,3
		c-0.1,0.6-0.3,1.7,0.1,2.3c0.3,0.5,0.6,0.5,1.1,0.5c0.7,0,1.9-0.8,2.3-1.2c0.1-0.1,0.1-0.1,0.2-0.2c0.1,0,0.1,0,0.1-0.1l0.6-0.5
		c0.1-0.1,0.3-0.3,0.4-0.4c0,0,0.1-0.1,0.1-0.1c0,0,0-0.1,0.1-0.1c0.1-0.1,0.1-0.1,0.2-0.2c-0.1-0.1-0.4-0.6-0.5-0.7l-1.1,0.9
		c-0.1,0.1-0.2,0.1-0.3,0.2c-0.2,0.2-1,0.9-1.2,0.7c0,0,0,0-0.1-0.1c0-0.1,0-0.1,0-0.2c0.1-0.9,0.1-0.8,0.3-1.7l0.9-3.1
		c0.2-0.8,0.7-2.3,0.9-3.1c0.1-0.6,0.2-1.3-0.2-1.8c-1-1.2-3.2,0.5-3.9,1c-0.6,0.4-1.2,0.9-1.8,1.4c-0.2,0.1-0.4,0.4-0.5,0.5
		c0.2-0.8,0.4-1.7,0.6-2.5c0.4-1.6,0.7-3.5,1.2-5.1c0.5-2,1.1-1.8,2.7-1.6c0.7,0.1,1.7,0.3,2.3-0.1c0.8-0.6,0.4-2-1-2
		c-2.3,0-4.4,1.5-5.4,3c-0.6,0.9-1.1,2.2-1.4,3.3c-0.3,1.1-0.6,2.7-0.9,3.8l-0.5,2.3c-0.1,0.5-0.2,1-0.3,1.5c-0.3,1.6-0.7,3-1.1,4.5
		L97.6,84C97.6,84.1,97.6,84.2,97.6,84.3C97.5,84.3,97.5,84.3,97.6,84.3"/>
	<path class="st0" d="M106.1,121.8c0-0.2,1.1-4.9,1.1-5.1c0.1-0.6,0.4-2,0.6-2.5c0.1-0.4,0.2-0.8,0.4-1.1c0.2-0.3,0.5-0.5,1-0.5
		l0.7,0.1c0.6,0.1,1.5,0.3,2.1,0.2c0.6-0.1,1.2-0.6,1-1.3c-0.1-0.6-0.7-0.9-1.4-0.9c-1.5,0-2.8,0.6-4,1.5c-0.1,0.1-0.3,0.2-0.4,0.4
		c-0.2,0.1-0.6,0.7-0.7,0.8c-0.5,0.6-0.8,1.3-1.1,2.1c-0.3,0.7-0.5,1.6-0.7,2.4c-0.4,1.7-0.8,3.5-1.2,5.1c-0.1,0.4-0.2,0.8-0.3,1.3
		l-0.4,1.9c-0.2,1.1-0.7,2.9-1,4.1c0,0.1-0.1,0.2-0.1,0.3h2.3l0.8-3.7c0.2-0.6,0.3-1.2,0.4-1.8c0.3-1,0.6-1.5,1.2-2.2
		c0,0,0.1-0.1,0.1-0.1c0.3-0.3,0.2-0.2,0.6-0.6c0,0,0.1-0.1,0.1-0.1c0.5-0.4,1.1-0.9,1.7-1.1c0.2-0.1,0.8-0.2,0.9,0.1
		c0.1,0.3-0.3,1.6-0.4,1.9c-0.1,0.5-0.4,1.2-0.5,1.7c-0.4,1.4-1.4,4.3-1,5.6c0.2,0.5,0.6,0.9,1.4,0.8c0.8-0.2,2-1,2.7-1.6
		c0.2-0.2,1.1-1.1,1.3-1.3c-0.1-0.2-0.3-0.4-0.5-0.7c-0.2,0.1-0.7,0.6-0.9,0.7c-0.1,0.1-0.2,0.2-0.3,0.3c-0.3,0.2-0.7,0.6-1,0.7
		c-0.2,0.1-0.2,0.1-0.4,0.1c-0.2-0.5,0.2-1.9,0.3-2.4c0.4-1.5,1.8-5.5,1.8-6.7c0-1.5-1.2-1.8-2.4-1.1c-0.9,0.4-1.8,1-2.5,1.7
		l-0.8,0.7c-0.1,0.1-0.2,0.2-0.4,0.3C106.4,121.5,106.2,121.7,106.1,121.8"/>
	<path class="st0" d="M115.2,127.7c0,1,0.1,1.4,0.6,2.1c0.4,0.6,1.3,0.9,2.1,0.9c1.1,0,1.7-0.2,2.6-0.7c0.6-0.3,1.5-1,1.9-1.5
		l0.2-0.3c0.3-0.3,0.6-0.8,0.8-1.1c0.3-0.5,0.4-0.8,0.7-1.3c0.5-1,0.9-2.7,0.9-4c0-0.9-0.1-1.8-0.5-2.5c-0.4-0.5-0.9-1-1.6-1
		c-0.6,0-0.9,0-1.5,0.3c-0.5,0.2-1,0.5-1.4,0.8c-0.1,0-0.1,0.1-0.2,0.1c-0.1,0.1-0.1,0.1-0.2,0.2c0,0,0,0-0.1,0.1c0,0,0,0-0.1,0.1
		l-0.6,0.5c0.2-1,0.5-2.3,0.8-3.3c0.1-0.4,0.2-0.7,0.3-1.1c0-0.2,0.1-0.3,0.1-0.5c0.1-0.4,0.3-1.2,0.4-1.6c0.2-0.6,0.5-1.5,1.2-1.5
		c1.1,0,1.4,0.3,2.7,0.3c0.6,0,1.2-0.4,1.2-0.9c0-0.4-0.1-0.8-0.5-1c-0.3-0.2-0.8-0.2-1.1-0.2c-1.7,0-3.3,1-4.4,2
		c-0.1,0.1-0.1,0.1-0.2,0.2c-0.1,0.1-0.1,0.1-0.2,0.2c-0.1,0.2-0.2,0.3-0.3,0.5c-1,1.5-1.4,3-1.8,4.7c-0.5,2.2-1,4.5-1.5,6.6
		C115.5,125.6,115.2,127,115.2,127.7 M118.9,129.6c-0.4,0-0.7,0-1-0.3c-0.2-0.2-0.3-0.3-0.5-0.6c-0.3-0.6,0-2.2,0.1-3
		c0.1-0.5,0.4-1.3,0.5-1.7c0.1-0.2,0.4-1,0.5-1.2c0.1-0.1,0.1-0.2,0.2-0.4c0.1-0.1,0.1-0.2,0.2-0.3c0.1-0.1,0.1-0.2,0.2-0.3
		c0.3-0.4,0.8-0.8,1.2-1.1c0.5-0.3,1.2-0.6,1.6,0c0.9,1.1,0.4,3.7,0.1,4.8c-0.1,0.3-0.2,0.7-0.4,1c-0.4,1-1,2.2-1.9,2.8
		C119.7,129.4,119.3,129.6,118.9,129.6z"/>
	<path class="st0" d="M99.8,66.2c0,0.7,0.5,1.8-1.4,1.8c-0.6,0-0.8-0.1-1.3-0.1c-0.1,0-0.3,0-0.4,0c-1.2-0.2-3.9-0.5-4.9-0.5
		c-1.1,0-1.7,0-2.7,0.2c-1,0.2-1.8,0.5-2.6,1c-0.2,0.1-0.7,0.4-0.9,0.6c-0.4,0.3-0.7,0.7-1.1,1.1c-0.6,0.8-1.3,2-1.4,3.4
		c-0.1,0.9,0.1,2.2,0.7,2.8c0.8,0.8,1.9,0.1,1.9-0.5c0-0.4,0-0.5-0.3-0.9c-0.1-0.1-0.1-0.2-0.2-0.3c-0.3-0.4-0.6-0.5-0.7-1.1
		c-0.1-0.4,0-0.4,0-0.6c0-0.1,0-0.1,0-0.2c0-0.4,0.1-0.8,0.3-1.1c0.1-0.2,0.2-0.4,0.3-0.6c1.1-1.7,3.6-2.2,6.2-2.2
		c0.4,0,0.7,0,1.1,0l-1,4.1c-0.3,1.4-0.7,2.8-1,4.2c-0.2,0.7-0.4,1.4-0.5,2c-0.2,0.7-0.4,1.4-0.6,2c-0.3,1.2-0.8,1.7-1.9,2
		c-0.3,0.1-0.8,0.2-1.1,0.2c0,0.1-0.1,0.4-0.1,0.5c0,0.1-0.1,0.4-0.1,0.5l1.2-0.2c0.8-0.1,1.4-0.1,2.2-0.1c0.2,0,1.9,0.1,2.2,0.1
		c0.6,0.1,1.5,0,2,0c0.1,0,0.2,0,0.4-0.1c0.1,0,0.2-0.1,0.3-0.1l0.2-0.8c0-0.1,0-0.2,0-0.3c-1.4,0.3-1.7,0.3-2.9,0.2
		c-0.2,0-0.4,0-0.6,0c0.1-0.3,0.1-0.6,0.2-0.9l0.4-1.8c0.1-0.3,0.1-0.6,0.2-0.9l2.6-10.2c0-0.2,0.1-0.3,0.1-0.5l0.8,0
		c0.2,0,0.2,0,0.4,0c1,0,2.3,0,3.2-0.2c1.2-0.3,2.4-1,2.5-2.3c0.1-0.7-0.3-1.4-1.1-1.4C100.3,65.3,99.8,65.7,99.8,66.2"/>
	<path class="st0" d="M79,121.3l0.6,0.7c0.2-0.3,2.4-2.3,2.4-1.6c0,0.4-0.2,1-0.3,1.3c-0.1,0.4-0.2,0.8-0.3,1.2
		c-0.2,0.8-0.4,1.7-0.6,2.5l-1.1,4.3c0,0.1-0.1,0.5-0.1,0.6H82c0-0.1,0.1-0.3,0.1-0.4l0.7-2.9c0.2-1,0.5-2.3,0.8-3.2
		c0.1-0.2,0.2-0.4,0.3-0.7l0.5-0.7c0.2-0.2,0.3-0.3,0.5-0.5l0.3-0.2c0.5-0.4,1.4-1.1,2-1.2c0.9-0.2,0.7,0.3,0.5,1
		c-0.2,1-0.6,2.2-0.9,3.2c-0.1,0.4-0.2,0.8-0.4,1.3c-0.1,0.4-0.2,0.8-0.3,1.3c-0.2,1-0.7,3,0.6,3.4c1,0.3,2.2-0.7,2.8-1.1l0.7-0.6
		c0,0,0.1-0.1,0.1-0.1c0,0,0.1,0,0.1-0.1c0.1-0.1,0.8-0.8,0.9-0.9l-0.5-0.7c-0.1,0.1-0.5,0.4-0.6,0.5c-0.4,0.3-1.8,1.8-2,1.3
		c-0.3-0.5,0.5-2.9,0.7-3.6c0.2-0.6,0.4-1.4,0.6-2c0.2-0.7,0.8-2.5,0.8-3.2c0-0.6,0-0.9-0.3-1.3c-0.2-0.3-0.6-0.4-0.9-0.4
		c-0.8,0-1.6,0.5-2.2,0.9c-0.2,0.1-0.4,0.3-0.6,0.4l-1.2,0.9c-0.1,0-0.1,0.1-0.1,0.1l-0.4,0.4c-0.2,0.1-0.4,0.4-0.6,0.5
		c0-0.1,0.1-0.3,0.1-0.4l0.3-1.4c0.1-0.3,0.2-0.7,0.2-0.9c0-0.3-0.3-0.5-0.6-0.5c-0.7,0-1.1,0.1-1.8,0.4c-0.2,0.1-0.4,0.2-0.6,0.3
		c-0.3,0.2-0.5,0.4-0.8,0.6l-0.9,0.8c0,0-0.1,0.1-0.1,0.1L79,121.3z"/>
	<path class="st0" d="M65.9,121.3c0.1,0.1,0.7,0.5,0.8,0.6c0.3-0.2,1.5-1.5,2.1-1.5c0.2,0,0.2,0,0.2,0.4c0,0.2-0.1,0.5-0.1,0.7
		c-0.1,0.7-0.4,1.9-0.7,2.6c-0.3,0.9-1.1,3.8-1.2,4.6c-0.1,0.7-0.1,1.5,0.4,1.9c0.9,0.7,2.9-0.5,3.7-1.1c0.1-0.1,0.2-0.1,0.3-0.2
		c0.6-0.4,1.6-1.4,1.6-1.4c0,0.1,0,0.2-0.1,0.3c-0.1,0.5-0.1,0.8-0.1,1.3c0,0.7,0.5,1.3,1.1,1.3c0.7,0,1-0.2,1.5-0.5
		c0.6-0.4,0.8-0.6,1.3-1c0.2-0.2,1.6-1.4,1.6-1.6l-0.6-0.7l-1.2,1.2c-0.2,0.2-0.8,0.7-1.1,0.7c-0.4-0.1-0.2-0.8-0.1-1
		c0-0.2,0.1-0.4,0.1-0.6c0.1-0.4,0.2-0.8,0.3-1.2l0.6-2.4c0.1-0.4,0.2-0.8,0.3-1.2c0-0.2,0.1-0.4,0.2-0.6l0.8-3.1h-2.2
		c0,0.1-0.1,0.3-0.1,0.4c-0.3,1.1-0.6,2.3-0.9,3.4c-0.1,0.5-0.5,1.9-0.6,2.3c-0.2,0.8-0.5,1.2-1,1.8c-0.1,0.1-0.4,0.5-0.6,0.6
		c-0.1,0.1-0.4,0.4-0.6,0.6c-0.4,0.3-1.8,1.4-2.1,0.5c-0.1-0.4,0.1-1.4,0.2-1.8l0.6-2.3c0.1-0.4,0.2-0.8,0.3-1.1
		c0.3-1.2,0.7-2.6,0.7-3.9c0-0.5-0.3-0.9-0.9-0.9c-0.9,0-2,0.7-2.6,1.1L65.9,121.3z"/>
	<path class="st0" d="M70.3,107.3c0.1,0,0.3,0,0.4,0c0.1,0,0.3,0,0.4,0l0.9-0.1c0.3,0,0.6,0,0.9,0c0.5,0,1,0,1.5,0
		c0.2,0,0.3,0,0.5,0l4.8,0.4c1,0.1,1.5,0.1,2.5,0.1c0.7,0,1.4-0.2,1.9-0.4c0.1,0,0.3-0.1,0.4-0.2c0.1-0.1,0.2-0.2,0.3-0.2
		c0.5-0.4,1-1.2,1-1.9c0-0.1,0-0.2,0-0.3c0-1.9-2.1-1.9-2.1-0.5c0,0.5,0.4,0.9,0.4,1.4c0,0.5-0.5,0.9-1,0.9c-1.6,0-3.4-0.8-5.1-0.8
		c-1,0-1,0-2.1,0.1l-1.2,0.2c0.5-0.7,0.6-1,0.9-1.7c0.5-1.4,1.3-4.6,1.7-6.1c0.4-1.4,0.6-2.1,1.1-3.4c0.3-0.7,0.7-1.5,1.2-2.1
		c0.3-0.4,0.9-1.1,1.6-1.1c0.5,0,0.7,0.1,1.1,0.4l0.4,0.3c0.4,0.3,0.8,0.8,1.4,0.8c0.7,0,1.5-1.1,0-2.2c-0.3-0.2-1-0.5-1.6-0.5
		c-0.1,0-0.2,0-0.2,0l-0.7,0c-0.3,0-0.9,0.2-1.2,0.3l-0.7,0.3c-0.1,0.1-0.2,0.1-0.3,0.2c-0.3,0.2-0.5,0.3-0.8,0.5
		c-0.6,0.5-0.9,0.8-1.4,1.5c-1.1,1.6-1.4,2.7-2,4.4c-0.2,0.7-0.5,1.8-0.7,2.5l-0.4,1.7c-0.3,1.2-0.8,3.5-1.7,4.1
		c-0.5,0.3-1.2,0.4-1.8,0.6c-0.2,0-0.1,0.1-0.2,0.6C70.3,107,70.3,107.3,70.3,107.3"/>
	<path class="st0" d="M48.6,129.6c0,0.2-0.2,0.7-0.2,1c0.7-0.2,2.6-0.3,3.4-0.3l1.4,0c0.1,0,0.1,0,0.2,0l1,0c0.1,0,0.1,0,0.2,0
		c0.7,0,1.3,0.1,2,0.1c0.2,0,0.3,0,0.5,0c0.1,0,0.3,0,0.5,0l1.5,0.1c0.2,0,1,0,1.3,0c1,0,1.9-0.3,2.5-0.8c0.6-0.5,1.2-1.3,1.2-2.1
		c0-0.4,0-0.9-0.3-1.2c-0.6-0.8-1.7-0.4-1.7,0.4c0,0.8,0.4,1.1,0.4,1.6s-0.6,0.9-1.1,0.9c-0.7,0-2-0.3-2.6-0.5
		c-1.9-0.4-3.1-0.5-5-0.1l-0.7,0.1l0.3-0.4c0.1-0.1,0.2-0.3,0.2-0.4c0.1-0.3,0.3-0.6,0.4-0.9l0.6-2c0.6-2,1.1-4.4,1.7-6.2l0.3-1
		c0.1-0.3,0.2-0.6,0.4-0.9c0.1-0.3,0.3-0.6,0.4-0.9c0.1-0.2,0.3-0.6,0.5-0.8c0.6-0.7,1.4-1.4,2.4-0.8l0.6,0.5
		c0.2,0.2,0.4,0.3,0.6,0.5c0.4,0.3,0.9,0.5,1.4,0.1c0.3-0.3,0.3-0.4,0.3-0.8c0-0.5-0.6-1-0.9-1.3c-0.9-0.6-2.2-0.6-3.3-0.2
		c-0.4,0.1-0.9,0.3-1.2,0.5c-0.5,0.3-1.3,0.9-1.7,1.4l-1,1.2c-1,1.5-1.5,3.3-2,5c-0.1,0.5-0.2,0.9-0.4,1.4c-0.2,0.8-0.5,2-0.7,2.8
		c-0.2,0.9-0.7,2.5-1.4,3C50.3,129.3,49.2,129.6,48.6,129.6"/>
	<path class="st0" d="M144.1,122.1c0-0.1-0.1-0.4-0.1-0.5c0-0.2-0.1-0.3-0.1-0.5c-0.1-0.7-0.4-1.9-1-2.3c-0.6-0.4-1.2,0-1.8,0.2
		c-0.2,0.1-0.3,0.2-0.5,0.3c-0.3,0.2-0.6,0.4-0.9,0.6c-0.4,0.3-0.8,0.6-1.2,0.9c-0.1,0.1,0,0.1-0.1,0.1c0,0.2,0.4,0.6,0.5,0.8
		c0.1,0,0.6-0.5,0.9-0.7c1.3-0.9,1.6-0.9,2,1.3c0.1,0.4,0.5,2.1,0.5,2.3c0,0.1-0.6,0.9-0.7,1.1c-0.1,0.2-0.2,0.4-0.4,0.5
		c-0.4,0.6-0.8,1.2-1.2,1.7c-0.3,0.4-0.8,1-1.2,1.3c-1,0.8-1-0.4-1.9-0.6c-0.5-0.1-1.1,0.5-1.1,1c0,0.4,0.2,0.8,0.5,1
		c1,0.8,2.6,0,3.2-0.6l1.2-1.4l1.7-2.2c0.1-0.1,0.2-0.3,0.3-0.4c0,0.3,0.2,1.3,0.3,1.6c0.4,1.8,0.9,3.7,1.9,5.3
		c0.1,0.1,0.1,0.2,0.2,0.3c0.3,0.4,0.7,0.9,1.2,1.2c0.3,0.2,0.6,0.4,0.9,0.5c0.7,0.3,1.1,0.4,2,0.4c0.7,0,1.3-0.2,1.7-0.5
		c0.3-0.2,0.9-0.8,0.9-1.3v-0.2c0-0.8-0.9-1.1-1.5-0.6c-0.5,0.5-0.4,1.4-1.3,1.5c-0.8,0.1-1.4-0.4-1.8-0.9c-0.1-0.1-0.1-0.2-0.2-0.2
		c0,0-0.1-0.1-0.1-0.1c-0.6-0.8-0.9-1.7-1.2-2.7c-0.1-0.5-0.3-1-0.4-1.5c-0.2-1-0.4-2-0.7-3c-0.1-0.3-0.4-1.7-0.4-1.9
		c0-0.1,0.1-0.2,0.1-0.3c0.4-0.6,0.8-1.3,1.4-1.9l0.5-0.5c0.2-0.2,0.5-0.4,0.8-0.6c1.1-0.6,2.4-0.2,3-0.8c0.4-0.4,0.4-1,0-1.4
		c0,0-0.1-0.1-0.1-0.1c-0.7-0.5-1.8,0.1-2.4,0.4c-0.7,0.4-1.2,0.9-1.8,1.5c-0.1,0.1-0.1,0.1-0.1,0.2c-0.2,0.2-0.4,0.4-0.5,0.6
		c-0.2,0.2-0.3,0.4-0.5,0.7c-0.1,0.1-0.2,0.2-0.2,0.3C144.3,121.8,144.2,122,144.1,122.1"/>
	<path class="st0" d="M126.3,127c0,0.6,0.1,1.1,0.2,1.5c0.2,0.8,0.9,1.5,1.6,1.9c1.4,0.7,3.3,0.2,4.5-0.6c0.3-0.2,0.8-0.6,1-0.8
		l0.8-0.8c0.3-0.4,0.8-1,1.1-1.4c0.2-0.4,0.2-0.4,0.5-0.9c0.8-1.8,1-4.6-0.2-6.2c-0.5-0.7-1.3-1.2-2.5-1.2c-2.4,0-4,1.4-5,2.7
		C127.2,122.6,126.3,124.6,126.3,127 M130.8,129.4c-0.8,0-1.2-0.5-1.5-1.1c-0.5-0.9-0.4-1.9-0.4-2.9c0-1.3,0.3-2.8,1-4l0.5-0.6
		c0-0.1,0.1-0.1,0.1-0.1c0.3-0.4,0.9-0.9,1.6-0.9c0.5,0,0.7,0.1,1.1,0.4c0.7,0.7,0.8,2.1,0.8,3.2c0,1.4-0.3,2.9-0.8,3.8
		c-0.4,0.8-0.4,0.8-0.9,1.4c-0.1,0.1-0.5,0.4-0.6,0.5C131.4,129.3,131.1,129.4,130.8,129.4z"/>
	<path class="st0" d="M113.1,106.1c0,0.8,0.3,1.4,1.1,1.4c1.2,0,2.7-1.1,3.5-1.8l0.7-0.6c0.2-0.2,0.3-0.3,0.5-0.5l0.4-0.4l-0.6-0.7
		l-0.9,0.8c-0.3,0.3-0.6,0.5-1,0.7c-0.3,0.2-1.6,1.1-1.6,0.4c0-0.2,0.2-0.9,0.2-1.1l1.5-6.4c0.2-1,0.6-2.2,0.8-3.2
		c0.2-0.9,0.8-3.5,1.1-4.2c0.3-0.8,0.5-1.3,1.4-1.3c0.4,0,0.8,0,1.2,0.1c0.7,0.1,1.6,0.3,2.2-0.1c0.7-0.5,0.6-1.5-0.3-1.9
		c-0.8-0.3-2.4,0-3.1,0.4c-0.2,0.1-0.4,0.2-0.6,0.3c-0.8,0.5-1.2,0.7-2,1.6c-0.9,1-1.3,2.3-1.7,3.6c-0.1,0.5-0.3,0.9-0.4,1.4
		l-1.4,5.6c-0.3,1.4-0.7,2.8-1,4.3C113.2,105,113.1,105.6,113.1,106.1"/>
	<path class="st0" d="M111.9,84.6c0.9,0,1.3-0.1,2.2-0.4c0.2-0.1,0.5-0.2,0.8-0.4c0.1-0.1,0.2-0.1,0.4-0.2c0.4-0.2,0.7-0.4,1-0.7
		l1.3-1c0.1-0.1,0.1-0.1,0.1-0.1l0.4-0.4c-0.2-0.3-0.4-0.5-0.6-0.8c-0.1,0.1-0.2,0.1-0.3,0.2c-0.8,0.6-2.2,1.6-3.1,1.8
		c-1.4,0.3-1.6-0.5-1.6-1.6c0-0.2,0-0.5,0-0.7c0-0.2,0.1-0.5,0.1-0.6c0.1,0,0.4-0.2,0.5-0.2s0.2-0.1,0.2-0.1c0.7-0.3,1.5-0.7,2.2-1
		c0.1,0,0.1-0.1,0.2-0.1c0.3-0.2,0.8-0.5,1.1-0.7c0.1-0.1,0.3-0.2,0.4-0.3c0.9-0.7,1.6-1.6,1.6-2.8c0-0.3,0-0.6-0.1-0.8
		c0-0.1-0.1-0.2-0.2-0.3c0,0-0.1-0.1-0.1-0.1c-0.1-0.1-0.2-0.2-0.4-0.3c-0.9-0.6-2.7-0.3-3.6,0.2c-0.1,0.1-0.2,0.1-0.4,0.2
		c-0.3,0.2-0.6,0.5-0.9,0.7c-0.1,0.1-0.1,0.1-0.2,0.2c0,0.1-0.1,0.1-0.1,0.2c-0.1,0.1-0.1,0.1-0.1,0.2c-0.7,0.8-1.2,1.7-1.7,2.6
		c-0.4,0.8-0.5,1.3-0.8,2.2c-0.1,0.4-0.3,1.5-0.3,2c0,0.1,0,0.2,0,0.3c-0.1,0.6,0.1,1.7,0.3,2.2C110.6,84.2,111.2,84.6,111.9,84.6
		 M112.7,78.5c0-0.3,0.3-1.2,0.4-1.5c0.1-0.2,0.1-0.5,0.2-0.7c0.2-0.5,0.3-0.8,0.6-1.3c0.1-0.2,0.3-0.4,0.4-0.5
		c0.2-0.2,0.3-0.3,0.5-0.4c0.8-0.5,1.8-0.2,1.8,0.8c0,0.7-0.2,0.9-0.6,1.5c-0.1,0.1-0.3,0.3-0.4,0.5l-0.5,0.4
		C114.1,77.8,113.8,77.9,112.7,78.5z"/>
	<path class="st0" d="M119.6,104.3c0,0.8,0,1.6,0.5,2.3c0.4,0.5,0.9,0.8,1.7,0.8c1.2,0,2.6-0.7,3.4-1.3l1.5-1.1
		c0.1,0,0.1-0.1,0.2-0.1c0.1-0.1,0.2-0.2,0.3-0.3c0.1-0.1,0.1-0.1,0.2-0.1l0.4-0.4c0-0.1-0.5-0.7-0.6-0.8c-0.1,0-0.1,0.1-0.2,0.1
		l-0.4,0.3c-0.4,0.3-1.3,0.9-1.8,1.2c-0.6,0.3-0.9,0.5-1.7,0.5c-0.7,0-1-0.7-1-1.3c0-0.2,0-1.5,0.1-1.7c0,0,0.2-0.1,0.3-0.1l1.1-0.5
		c0.4-0.2,1.7-0.8,2.1-1c0.3-0.2,0.6-0.4,1-0.6c0.2-0.1,0.3-0.2,0.4-0.3c0.4-0.3,0.8-0.8,1.1-1.3c0.3-0.7,0.4-0.9,0.4-1.6
		c0-0.8-0.6-1.5-1.4-1.7c-0.5-0.1-1.2-0.1-1.7,0c-1.2,0.3-1.9,0.8-2.7,1.6c-0.1,0.1-0.1,0.1-0.2,0.2c-0.1,0.1-0.1,0.1-0.1,0.2
		c-0.1,0.1-0.2,0.2-0.3,0.3c-0.2,0.2-0.4,0.5-0.5,0.7c-0.7,1.2-1,1.6-1.4,2.9C119.8,102,119.6,103.3,119.6,104.3 M122.4,101.2
		c0.1-0.5,0.2-1,0.4-1.5c0-0.1,0.1-0.2,0.1-0.4c0-0.1,0.1-0.2,0.1-0.3c0.1-0.2,0.2-0.4,0.3-0.7c0.2-0.4,0.4-0.9,0.7-1.2
		c0.3-0.3,0.7-0.7,1.2-0.7c1,0,1.5,1.3,0.4,2.6c-0.7,0.8-1.6,1.4-2.6,1.8C122.9,101,122.5,101.2,122.4,101.2z"/>
	<path class="st0" d="M106.9,96.1h-2.2c0,0.2-0.1,0.4-0.1,0.6c0,0.1,0,0.2-0.1,0.3c0,0.1-0.1,0.2-0.1,0.3h2.2
		c-0.1,0.3-0.2,0.7-0.3,1l-0.5,2.1c-0.1,0.3-0.2,0.7-0.3,1c-0.2,0.7-0.6,2.5-0.7,3.1c-0.1,0.7-0.2,1.8,0.1,2.4c0.6,1,2,0.3,2.7,0
		c0.3-0.1,0.5-0.3,0.7-0.4c0.1-0.1,0.2-0.1,0.3-0.2l1-0.7c0.3-0.2,1.9-1.4,2-1.5c0-0.1-0.6-0.8-0.7-0.8l-0.4,0.4
		c-0.5,0.3-3.6,2.7-3.6,1.2c0-1.1,0.5-2.8,0.8-3.9c0.1-0.6,0.3-1.2,0.5-1.8l0.5-1.8h2.9c0-0.2,0.1-0.4,0.1-0.6l0.1-0.6h-2.9
		c0-0.1,0.1-0.4,0.1-0.5c0-0.2,0.1-0.3,0.1-0.5l0.6-2.5c0-0.1,0.1-0.4,0.1-0.5c-0.1,0-0.2,0.1-0.3,0.1l-2.1,0.8c0,0,0,0,0,0
		l-0.4,1.5c-0.1,0.2-0.1,0.5-0.2,0.7L106.9,96.1z"/>
	<path class="st0" d="M97.7,96.1h-2.2c0,0.1-0.1,0.4-0.1,0.6l-0.2,0.6h2.2c0,0.1-0.5,1.9-0.5,2l-0.5,2.1c-0.2,0.7-0.3,1.4-0.5,2
		c-0.2,0.9-0.6,2.8-0.1,3.6c0.8,1.2,2.9-0.2,3.8-0.8c0.1-0.1,0.2-0.1,0.3-0.2c0.6-0.5,1.3-0.9,2-1.5l0.7-0.5l-0.5-0.6
		c0,0-0.1-0.2-0.2-0.2c-0.3,0.2-0.7,0.6-1.1,0.9c-0.5,0.4-2.1,1.5-2.7,1.2c-0.4-0.2-0.1-1.2-0.1-1.6c0.2-1.1,0.5-2.1,0.8-3.2
		l0.8-3.2h2.8c0.1,0,0.1-0.4,0.2-0.6c0-0.1,0.1-0.5,0.1-0.6H100l0.5-2c0.1-0.3,0.2-0.6,0.2-1s0.2-0.7,0.3-1c-0.1,0-0.2,0.1-0.3,0.1
		l-2,0.7c-0.2,0.1-0.2,0-0.2,0.2l-0.7,2.7C97.8,96,97.8,96.1,97.7,96.1"/>
	<path class="st0" d="M92.2,127.2c0,1,0,1.8,0.6,2.7c1,1.5,3.4,0.7,4.7,0c0.6-0.3,1.1-0.6,1.6-1l0.9-0.7c0.1-0.1,0.2-0.2,0.3-0.2
		l-0.4-1c-0.1,0-0.7,0.5-0.8,0.6c-0.9,0.6-2,1.3-3.2,1.3c-1.5,0-1.5-2.5-1.3-3.6c0.2-1.5,0.5-2.5,1.2-3.9c0.3-0.7,1-1.5,1.9-1.5
		c0.9,0,1.7,0.9,2.6,0.9c0.3,0,0.6-0.1,0.8-0.2c0.3-0.3,0.4-0.5,0.4-0.9c0-0.5-0.4-0.9-0.7-1c-1-0.6-2.9-0.3-3.8,0.2
		c-0.2,0.1-0.4,0.2-0.6,0.4c-0.4,0.3-0.7,0.6-1,0.9l-0.3,0.4c-0.4,0.5-0.6,0.7-0.9,1.3c-0.3,0.5-0.4,0.7-0.7,1.3l-0.3,0.7
		C92.6,124.9,92.2,126.2,92.2,127.2"/>
	<path class="st0" d="M87.6,98.1l0.4,0.3c0.1,0.1,0.3,0.2,0.4,0.3c0.1-0.1,0.2-0.1,0.2-0.2c0.1-0.1,0.1-0.1,0.2-0.2l0.4-0.3
		c0.1,0,0.1,0,0.1-0.1c0,0,0.1-0.1,0.1-0.1c0.3-0.3,0.6-0.6,1.1-0.6c0.3,0-0.1,1-0.1,1.1l-0.7,2.2c-0.1,0.4-0.2,0.7-0.3,1.1
		c-0.3,1.1-1,3.7-1,4.7v0.3c0,0.6,0.5,1.1,1.2,1.1c0.9,0,2.1-0.9,2.8-1.5l1.6-1.4l-0.7-0.7c-0.5,0.4-1.8,1.8-2.3,1.8
		c-0.4,0,0-1.4,0-1.6c0.1-0.4,0.2-0.8,0.3-1.2c0-0.2,0.1-0.4,0.1-0.6c0.4-1.7,1-3.4,1.5-5.1c0-0.2,0.1-0.4,0.1-0.6
		c0.1-0.4,0.3-0.9-0.2-1.3c-0.7-0.6-2.3,0.2-2.9,0.5c-0.4,0.2-1,0.7-1.3,1l-0.2,0.2c-0.2,0.2-0.3,0.3-0.5,0.5c0,0-0.1,0.1-0.1,0.1
		L87.6,98.1z"/>
	<path class="st0" d="M92.4,90.8c0,0.3,0.1,0.6,0.3,0.8C93,92,93.2,92,93.6,92c0.6,0,1.4-0.8,1.4-1.5v-0.3c0-0.7-0.9-1.3-1.7-0.8
		C92.7,89.6,92.4,90.2,92.4,90.8"/>
</g>
</svg>
